<svg width="97" height="98" viewBox="0 0 97 98" fill="none" xmlns="http://www.w3.org/2000/svg">
<g id="Frame" clip-path="url(#clip0_249_500)">
<g id="Group">
<path id="Vector" d="M0.633789 81.0147C0.633789 56.8262 0.633789 32.6376 0.633789 8.44904C21.5034 8.44904 42.3808 8.44904 63.2503 8.44904C63.6897 8.44904 64.1212 8.4649 64.5606 8.4649C64.5841 9.78096 64.5998 11.097 64.6233 12.4131C64.6076 14.181 64.5763 15.9411 64.5841 17.709C64.5919 21.3401 64.6155 24.9632 64.6312 28.5943C64.6233 39.3606 64.6233 50.1349 64.6155 60.9012C64.6076 66.324 64.6076 71.7389 64.5998 77.1617C64.5841 78.446 64.5684 79.7304 64.5527 81.0147C43.2516 81.0147 21.9427 81.0147 0.633789 81.0147ZM33.319 19.6514C32.6913 19.4929 32.6599 19.9923 32.5658 20.3729C30.0316 30.608 27.5053 40.8511 24.9555 51.0862C24.7829 51.7839 24.9868 51.9504 25.5988 52.0931C27.5995 52.5609 29.608 53.0445 31.5851 53.6153C32.3853 53.8452 32.605 53.5994 32.7855 52.8542C34.2369 46.8923 35.7276 40.9304 37.2026 34.9764C38.2304 30.8221 39.266 26.6678 40.286 22.5055C40.3958 22.0615 40.639 21.5383 39.9408 21.3559C37.7361 20.7772 35.5236 20.2143 33.319 19.6514ZM23.3314 41.8183C23.2059 41.6677 23.0568 41.4615 22.8842 41.2871C21.5583 39.9473 20.248 38.5995 18.8907 37.2914C18.4121 36.8316 18.42 36.5382 18.8907 36.0784C20.2637 34.7465 21.5897 33.3591 22.9548 32.0192C23.3549 31.6307 23.3942 31.3533 22.9783 30.9331C21.4171 29.3871 19.8714 27.8253 18.3415 26.2476C17.9493 25.8432 17.6825 25.8115 17.2745 26.2317C14.0029 29.5694 10.7155 32.8992 7.41248 36.2132C7.06726 36.562 7.05942 36.784 7.41248 37.1328C10.7077 40.4468 13.995 43.7765 17.2745 47.1143C17.6825 47.5345 17.9571 47.5027 18.3415 47.0984C19.8714 45.5207 21.4249 43.9668 22.9705 42.405C23.1196 42.2623 23.3 42.1275 23.3314 41.8183ZM47.4099 47.4631C47.708 47.4631 47.8414 47.2649 47.9904 47.1143C51.2543 43.8162 54.5102 40.5023 57.7897 37.2121C58.2055 36.7919 58.1663 36.5461 57.774 36.1497C54.5181 32.8834 51.2778 29.6011 48.0532 26.3031C47.606 25.8512 47.3471 25.8829 46.9234 26.3189C45.4249 27.8808 43.9028 29.4188 42.3494 30.9331C41.8786 31.385 41.9649 31.6387 42.3808 32.0509C43.7538 33.3828 45.064 34.7782 46.4448 36.1022C46.9313 36.5699 46.892 36.8474 46.4291 37.2993C45.0326 38.6471 43.691 40.0583 42.2945 41.4219C41.91 41.7945 41.9179 42.0244 42.2945 42.3971C43.8558 43.9351 45.3935 45.5128 46.9391 47.0667C47.096 47.2094 47.2686 47.3442 47.4099 47.4631Z" fill="#6BC3EE"/>
<path id="Vector_2" d="M64.6311 28.6022C64.6154 24.9712 64.5918 21.348 64.584 17.717C64.584 15.949 64.6075 14.189 64.6232 12.421C67.0318 12.4289 69.4326 12.4607 71.8413 12.4131C72.5238 12.4052 72.6729 12.6113 72.6494 13.2614C72.5944 14.522 72.6494 15.7825 72.6258 17.051C72.618 17.4871 72.72 17.7011 73.1829 17.8359C74.6736 18.2799 76.1093 18.8745 77.4745 19.6356C77.8432 19.8417 78.0551 19.7862 78.3453 19.4849C79.2711 18.5018 80.2519 17.5743 81.1776 16.5912C81.4836 16.2661 81.6562 16.2423 81.9779 16.5753C85.4771 20.135 88.992 23.6868 92.5147 27.2227C92.8913 27.6033 92.7971 27.7856 92.4754 28.1027C91.534 29.0224 90.6317 29.9896 89.6745 30.9014C89.345 31.2185 89.3058 31.4722 89.5255 31.8686C90.2473 33.1926 90.82 34.58 91.2358 36.0308C91.3692 36.5144 91.581 36.7285 92.1302 36.7126C93.6288 36.6651 95.1273 36.6968 96.6258 36.6968C96.6258 42.0641 96.6258 47.4314 96.6258 52.7987C95.1273 52.8066 93.6288 52.8383 92.1302 52.8225C91.6595 52.8146 91.4006 52.9414 91.2594 53.4329C90.8357 54.9076 90.2708 56.3346 89.5176 57.6745C89.2509 58.1422 89.3999 58.3959 89.7295 58.713C90.6709 59.6327 91.5732 60.592 92.5225 61.5117C92.852 61.8288 92.8442 62.0032 92.5225 62.3282C89.0233 65.8404 85.532 69.3604 82.0642 72.8964C81.6641 73.3007 81.4601 73.2294 81.1149 72.8567C80.2126 71.8974 79.2554 70.9857 78.3532 70.0343C78.0629 69.7331 77.8354 69.6934 77.4745 69.8996C76.1093 70.6607 74.6736 71.2553 73.1829 71.7072C72.7121 71.8499 72.6101 72.0718 72.618 72.5079C72.6415 73.5465 72.6258 74.593 72.6258 75.6316C72.6258 77.0824 72.6258 77.0586 71.2293 77.0903C69.0168 77.13 66.8043 76.9635 64.5918 77.1775C64.5997 71.7547 64.5997 66.3398 64.6075 60.917C65.5804 61.0201 66.5454 60.8615 67.4869 60.6713C76.4153 58.8795 81.9387 50.666 80.3068 41.636C78.9808 34.1915 72.0609 28.4437 64.6311 28.6022Z" fill="#FAAE19"/>
<path id="Vector_3" d="M64.5606 81.0147C64.5606 84.0987 64.7724 87.1986 64.5135 90.2589C64.2389 93.4935 62.2775 95.6737 59.2804 96.8629C58.9273 97.0057 58.8881 97.0294 58.7626 97.3069C58.5743 97.3069 58.386 97.3069 58.1977 97.3069C58.2369 97.2118 58.1977 97.1563 58.1035 97.1563C58.0094 97.1563 57.9702 97.2118 58.0094 97.3069C41.0705 97.3069 24.1317 97.3069 7.19279 97.3069C7.13788 97.2593 7.07511 97.2197 7.02019 97.1721C7.02019 97.2197 7.01234 97.2593 7.01234 97.3069C6.88681 97.3069 6.76128 97.3069 6.63575 97.3069C6.76128 96.9739 6.47884 96.9977 6.31408 96.9422C3.64654 96.0622 1.86556 94.2784 0.994691 91.5749C0.939771 91.4084 0.963308 91.123 0.633789 91.2419C0.633789 91.1151 0.633789 90.9882 0.633789 90.8614C0.680863 90.8535 0.720092 90.8535 0.767166 90.8455C0.720092 90.79 0.680863 90.7266 0.633789 90.6711C0.633789 87.4523 0.633789 84.2256 0.633789 81.0068C21.9427 81.0147 43.2516 81.0147 64.5606 81.0147ZM32.5815 93.2953C34.9823 93.2953 37.3909 93.2795 39.7917 93.3032C40.3644 93.3112 40.639 93.1922 40.6312 92.5263C40.5998 90.3223 40.5998 88.1103 40.6312 85.8984C40.639 85.2959 40.4193 85.1611 39.8623 85.1611C35.0215 85.177 30.1807 85.1849 25.3477 85.1611C24.7515 85.1611 24.6181 85.3593 24.6181 85.9222C24.6416 88.1024 24.6495 90.2747 24.6181 92.4549C24.6103 93.1209 24.8142 93.3112 25.4654 93.3032C27.8348 93.2795 30.2121 93.2953 32.5815 93.2953Z" fill="#5989C7"/>
<path id="Vector_4" d="M58.7626 0.306911C58.5429 0.742956 58.943 0.631963 59.1078 0.687459C61.9793 1.74189 63.776 3.7477 64.4664 6.76829C64.5841 7.26776 64.5919 7.7593 64.5606 8.25877C43.2516 8.25877 21.9427 8.25877 0.633789 8.2667C0.633789 7.82273 0.633789 7.37875 0.633789 6.94271C0.680863 6.88721 0.720092 6.82379 0.767166 6.76829C0.720092 6.76036 0.680863 6.75244 0.633789 6.75244C0.633789 6.62559 0.633789 6.49874 0.633789 6.37189C0.963308 6.49081 0.939771 6.2054 0.994691 6.03891C1.86556 3.33544 3.63869 1.55955 6.30623 0.671603C6.47099 0.616106 6.75344 0.639891 6.63575 0.306911C6.76128 0.306911 6.88681 0.306911 7.01234 0.306911C6.96527 0.402048 7.0045 0.465473 7.10649 0.465473C7.20849 0.465473 7.23987 0.402048 7.20064 0.306911C24.1395 0.306911 41.0784 0.306911 58.0172 0.306911C58.0329 0.409976 58.08 0.473401 58.1899 0.441689C58.2055 0.433761 58.1977 0.35448 58.2055 0.306911C58.386 0.306911 58.5743 0.306911 58.7626 0.306911Z" fill="#5989C7"/>
<path id="Vector_5" d="M0.633789 8.2667C21.9427 8.2667 43.2516 8.2667 64.5606 8.25877C64.5606 8.33012 64.5684 8.40148 64.5684 8.47283C64.129 8.4649 63.6975 8.45697 63.2582 8.45697C42.3886 8.45697 21.5112 8.45697 0.641635 8.45697C0.633789 8.39355 0.633789 8.33012 0.633789 8.2667Z" fill="#4082BE"/>
<path id="Vector_6" d="M64.6314 28.6022C72.0534 28.4516 78.9812 34.1994 80.3228 41.628C81.9547 50.6581 76.4313 58.8716 67.5029 60.6634C66.5614 60.8536 65.5964 61.0201 64.6235 60.9091C64.6235 50.1349 64.6314 39.3685 64.6314 28.6022Z" fill="#FDFEFF"/>
<path id="Vector_7" d="M33.319 19.6514C35.5236 20.2143 37.7361 20.7772 39.9407 21.348C40.6468 21.5304 40.3958 22.0536 40.2859 22.4976C39.2582 26.6519 38.2304 30.8141 37.2026 34.9685C35.7276 40.9304 34.2369 46.8843 32.7855 52.8463C32.605 53.5915 32.3932 53.8373 31.5851 53.6074C29.6079 53.0365 27.6073 52.5529 25.5988 52.0852C24.9868 51.9425 24.7828 51.776 24.9554 51.0783C27.5131 40.8432 30.0316 30.6001 32.5658 20.3649C32.6599 20.0002 32.6913 19.4929 33.319 19.6514Z" fill="#FDFEFF"/>
<path id="Vector_8" d="M23.3316 41.8183C23.3003 42.1275 23.1198 42.2702 22.9707 42.4208C21.4251 43.9827 19.8717 45.5366 18.3418 47.1143C17.9495 47.5186 17.6827 47.5503 17.2748 47.1301C14.0031 43.7924 10.7158 40.4626 7.41272 37.1487C7.06751 36.7998 7.06751 36.5779 7.41272 36.229C10.7079 32.9151 13.9953 29.5853 17.2748 26.2476C17.6827 25.8274 17.9573 25.8591 18.3418 26.2634C19.8717 27.8411 21.4173 29.403 22.9786 30.9489C23.4023 31.3612 23.3552 31.6387 22.9551 32.0351C21.5899 33.3749 20.264 34.7623 18.891 36.0942C18.4202 36.5541 18.4124 36.8474 18.891 37.3072C20.2483 38.6154 21.5585 39.9631 22.8844 41.303C23.0492 41.4616 23.1983 41.6598 23.3316 41.8183Z" fill="#FDFEFF"/>
<path id="Vector_9" d="M47.41 47.4631C47.2766 47.3442 47.104 47.2173 46.955 47.0588C45.4094 45.4969 43.8716 43.9272 42.3103 42.3891C41.9337 42.0165 41.9259 41.7866 42.3103 41.414C43.699 40.0583 45.0406 38.6471 46.445 37.2914C46.9079 36.8395 46.9471 36.562 46.4607 36.0942C45.0798 34.7703 43.7696 33.3749 42.3966 32.043C41.9729 31.6307 41.8945 31.377 42.3652 30.9251C43.9187 29.4188 45.4329 27.8728 46.9393 26.311C47.3551 25.875 47.6218 25.8432 48.069 26.2951C51.2936 29.5932 54.5339 32.8754 57.7899 36.1418C58.1821 36.5382 58.2214 36.784 57.8056 37.2042C54.5261 40.4943 51.2701 43.8003 48.0063 47.1063C47.8337 47.257 47.7081 47.4552 47.41 47.4631Z" fill="#FDFEFF"/>
<path id="Vector_10" d="M32.5814 93.2953C30.212 93.2953 27.8347 93.2715 25.4653 93.3112C24.8141 93.3191 24.6101 93.1288 24.618 92.4629C24.6572 90.2906 24.6494 88.1103 24.618 85.9301C24.6101 85.3672 24.7514 85.1611 25.3476 85.169C30.1884 85.1928 35.0292 85.1928 39.8622 85.169C40.4114 85.169 40.6389 85.3038 40.6311 85.9063C40.5997 88.1103 40.5997 90.3223 40.6311 92.5342C40.6389 93.1922 40.3643 93.3112 39.7916 93.3112C37.3908 93.2874 34.99 93.2953 32.5814 93.2953Z" fill="#FDFEFF"/>
</g>
</g>
<defs>
<clipPath id="clip0_249_500">
<rect width="96" height="97" fill="white" transform="translate(0.633789 0.306911)"/>
</clipPath>
</defs>
</svg>
