<svg width="95" height="104" viewBox="0 0 95 104" fill="none" xmlns="http://www.w3.org/2000/svg">
<g id="Frame" clip-path="url(#clip0_249_362)">
<g id="Group">
<path id="Vector" d="M86.3365 20.7969C89.5265 21.8669 92.0165 23.7669 93.5065 26.8469C94.2765 28.4569 94.6165 30.1569 94.6265 31.9269C94.6365 45.9769 94.6465 60.0269 94.6165 74.0869C94.6065 80.6369 89.7265 85.4969 83.1765 85.5369C75.0165 85.5769 66.8465 85.5669 58.6865 85.5769C51.2265 85.5769 43.7765 85.5769 36.3165 85.5769C28.1865 85.5669 20.0665 85.5669 11.9365 85.5469C6.36651 85.5169 2.04651 82.1769 0.706514 76.8969C0.456514 75.9169 0.366514 74.9069 0.366514 73.8869C0.366514 59.9469 0.356514 45.9969 0.376514 32.0569C0.386514 26.0969 4.12651 21.6469 9.99651 20.5969C10.4365 20.5169 10.9065 20.5469 11.3565 20.5269C11.2165 22.8069 11.5465 25.0169 12.2065 27.1869C8.74651 26.9869 7.02651 29.6069 7.05651 32.5169C7.16651 44.0169 7.10651 55.5169 7.10651 67.0169C7.10651 70.2969 8.88651 72.0669 12.1765 72.0669C35.7065 72.0669 59.2365 72.0669 82.7565 72.0669C86.1365 72.0669 87.8965 70.3269 87.8965 66.9769C87.8965 55.5069 87.8565 44.0469 87.9265 32.5769C87.9365 29.9769 87.0065 28.1969 84.5665 27.2469C85.1465 25.1069 85.7365 22.9469 86.3365 20.7969ZM47.4965 82.1769C49.3165 82.1769 50.8365 80.6869 50.8665 78.8669C50.8965 76.9969 49.3665 75.4469 47.4965 75.4469C45.6165 75.4469 44.1065 76.9769 44.1365 78.8569C44.1565 80.6769 45.6765 82.1769 47.4965 82.1769Z" fill="#244089"/>
<path id="Vector_2" d="M58.6766 92.2469C64.1066 92.2569 69.5466 92.2469 74.9766 92.2769C78.9966 92.2969 82.1466 94.7669 83.1266 98.5769C83.3266 99.3669 83.3666 100.167 83.2766 100.977C83.1366 102.267 82.0666 103.297 80.7666 103.417C80.3166 103.457 79.8566 103.437 79.3966 103.437C58.1166 103.437 36.8366 103.397 15.5566 103.477C12.0266 103.487 11.1466 101.407 11.8466 98.5769C12.7766 94.8069 15.9666 92.3069 19.8866 92.2769C24.9366 92.2369 29.9866 92.2669 35.0266 92.2669C35.4466 92.2669 35.8666 92.2469 36.2866 92.2369C43.7666 92.2469 51.2266 92.2469 58.6766 92.2469Z" fill="#244089"/>
<path id="Vector_3" d="M67.6865 20.5069C67.9865 19.4669 68.2965 18.4169 68.5965 17.3769C68.7965 17.4169 69.0065 17.4569 69.2065 17.4869C70.6765 17.7269 72.0465 18.4569 73.5765 18.4269C74.6365 18.4069 75.4765 17.7869 75.6665 16.8869C75.8965 15.7969 75.4065 14.5869 74.4165 14.2769C72.8965 13.7969 71.3865 13.2369 69.7665 13.1469C70.1365 11.6969 70.4865 10.2469 70.8865 8.80691C71.2665 7.44691 72.3065 6.75691 73.6765 7.09691C76.8165 7.88691 79.9265 8.76691 83.0465 9.61691C84.0265 10.5569 84.0565 11.6869 83.7265 12.9069C82.5965 17.0469 81.4665 21.1869 80.3565 25.3269C77.4665 36.1069 74.5765 46.8869 71.7165 57.6769C71.5265 58.3969 71.2365 58.6469 70.5165 58.6369C68.3065 58.5969 66.1065 58.6269 63.8965 58.6269C63.8365 58.6169 63.7665 58.6069 63.6965 58.6069C63.5765 57.9469 63.0565 57.7369 62.5065 57.5669C61.0765 57.1369 59.6365 56.7269 58.2065 56.3069C58.7765 54.2069 59.3365 52.0969 59.9065 49.9969C61.3165 50.0569 62.6165 50.6169 63.9565 50.9669C65.3065 51.3069 66.6465 50.6369 66.9965 49.4269C67.3265 48.2869 66.6465 47.0669 65.3365 46.6669C63.9365 46.2369 62.5065 45.9369 61.0965 45.5769C61.6665 43.3969 62.2365 41.2169 62.8065 39.0269C64.2565 39.3969 65.6965 39.7969 67.1665 40.1069C68.5865 40.4169 69.6365 39.7569 69.9565 38.4469C70.2065 37.4169 69.4265 36.2869 68.2365 35.8269C66.8765 35.2969 65.3665 35.2569 64.0565 34.5869C64.5165 32.4569 65.0865 30.3569 65.7365 28.2769C66.0765 28.3369 66.4265 28.3869 66.7565 28.4669C67.7965 28.7369 68.8365 29.0369 69.8865 29.2869C71.2665 29.6169 72.4565 28.9969 72.7165 27.8469C73.0465 26.3569 72.4165 25.3269 70.9465 24.9369C69.9065 24.6669 68.8665 24.3769 67.8265 24.1069C67.4365 24.0069 67.0865 23.8669 67.0365 23.4069C67.2465 22.4269 67.4665 21.4669 67.6865 20.5069Z" fill="#EFF3FA"/>
<path id="Vector_4" d="M63.9066 58.6069C66.1166 58.6069 68.3166 58.5769 70.5266 58.6169C71.2566 58.6269 71.5366 58.3769 71.7266 57.6569C74.5866 46.8669 77.4766 36.0869 80.3666 25.3069C81.4766 21.1669 82.6066 17.0269 83.7366 12.8869C84.0666 11.6669 84.0366 10.5369 83.0566 9.59691C84.3666 9.77691 85.6166 10.1669 86.8566 10.5969C88.1466 11.0469 88.5966 12.1769 88.2066 13.6669C87.5866 16.0469 86.9566 18.4169 86.3366 20.7969C85.7466 22.9469 85.1466 25.1069 84.5566 27.2569C81.7566 37.7069 78.9566 48.1669 76.1566 58.6169C75.7866 60.0869 75.4066 61.5469 75.0366 63.0169C68.8666 63.0269 62.7066 63.0369 56.5366 63.0369C56.5466 62.6169 56.5566 62.2069 56.5666 61.7869C56.7066 61.4269 56.8466 61.0669 56.9766 60.7069C58.2866 60.8869 59.5566 61.2469 60.7866 61.6869C62.8566 62.4369 64.8266 60.7969 63.9066 58.6069Z" fill="#CFE0F3"/>
<path id="Vector_5" d="M11.7666 18.6369C12.1266 16.8569 12.4766 15.0869 12.8366 13.3069C13.0666 12.1669 13.0766 11.0269 12.8366 9.87691C12.6466 8.95691 12.8166 8.10691 13.5866 7.51692C14.3366 6.93692 15.1966 6.86692 16.0566 7.30692C20.9866 9.80692 25.1966 13.1169 27.8966 18.0669C28.3266 18.8569 28.6466 19.7169 29.0166 20.5469C29.5866 22.3369 29.8366 24.1469 29.3566 25.9969C29.1966 26.0669 29.0266 26.1169 28.8966 26.2169C26.5666 27.9469 24.0266 28.8169 21.0766 28.3369C17.5566 27.7669 15.0066 25.8969 13.2166 22.8669C12.4366 21.5469 12.1866 20.0669 11.7666 18.6369Z" fill="#9A4C2A"/>
<path id="Vector_6" d="M47.4965 93.6269C56.2337 93.6269 63.3165 91.5137 63.3165 88.9069C63.3165 86.3001 56.2337 84.1869 47.4965 84.1869C38.7594 84.1869 31.6765 86.3001 31.6765 88.9069C31.6765 91.5137 38.7594 93.6269 47.4965 93.6269Z" fill="#24326B"/>
<path id="Vector_7" d="M52.9566 10.9769C54.1466 13.8069 55.1866 16.6969 56.1166 19.6269C56.2066 19.9269 56.2866 20.2269 56.3666 20.5269C56.1866 21.0369 56.5966 21.4969 56.4966 22.0069C56.2266 22.2369 55.9066 22.3469 55.5666 22.4369C52.8466 23.1569 50.1566 23.0369 47.4966 22.1569C47.4966 18.6769 47.5066 15.2069 47.5066 11.7269C49.3566 11.7369 51.1666 11.4069 52.9566 10.9769Z" fill="#F7A28D"/>
<path id="Vector_8" d="M47.5064 11.7169C47.5064 15.1969 47.4964 18.6669 47.4964 22.1469L47.5064 22.2069C47.2664 22.2469 47.0264 22.2769 46.7964 22.3369C44.3464 23.0069 41.8864 23.0769 39.4364 22.3669C39.0864 22.2669 38.5164 22.3069 38.6364 21.6369C38.6364 21.2769 38.6464 20.9169 38.6464 20.5569C39.5964 17.2469 40.8664 14.0569 42.0764 10.8469C43.8364 11.4369 45.6464 11.6769 47.5064 11.6469C47.4964 11.6569 47.5064 11.7169 47.5064 11.7169Z" fill="#FBCCB4"/>
<path id="Vector_9" d="M11.7665 18.6369C12.1865 20.0669 12.4365 21.5569 13.2165 22.8669C14.9965 25.8969 17.5465 27.7669 21.0765 28.3369C24.0365 28.8169 26.5665 27.9469 28.8965 26.2169C29.0265 26.1169 29.2065 26.0669 29.3565 25.9969C29.2465 26.4069 29.1365 26.8069 29.0265 27.2169C28.3465 28.9469 27.1865 30.2969 25.7765 31.4669C24.0965 32.4269 22.3265 33.0669 20.3565 32.9869C20.2065 32.9869 20.0565 32.9869 19.9065 32.9869C16.2565 32.4969 13.7565 30.4869 12.2065 27.1969C11.5465 25.0269 11.2165 22.8069 11.3565 20.5369C11.7265 19.9469 11.3065 19.1969 11.7665 18.6369Z" fill="#7E362A"/>
<path id="Vector_10" d="M56.4965 22.0069C56.6065 21.4969 56.1865 21.0369 56.3665 20.5269C60.1365 20.5169 63.9065 20.5169 67.6865 20.5069C67.4665 21.4669 67.2565 22.4369 67.0365 23.3969C66.6365 24.6769 66.2365 25.9469 65.8265 27.2269C62.7365 27.2169 59.6565 27.2169 56.5665 27.2069C56.5465 25.4669 56.5165 23.7369 56.4965 22.0069Z" fill="#24428A"/>
<path id="Vector_11" d="M29.0166 27.2069C29.1266 26.7969 29.2366 26.3969 29.3466 25.9869C29.8266 24.1369 29.5866 22.3269 29.0066 20.5369C32.2166 20.5469 35.4266 20.5469 38.6266 20.5569C38.6266 20.9169 38.6166 21.2769 38.6166 21.6369C38.2866 23.4769 38.6066 25.3469 38.4366 27.1969C35.3066 27.2069 32.1566 27.2069 29.0166 27.2069Z" fill="#24428A"/>
<path id="Vector_12" d="M52.9566 10.9769C51.1666 11.4169 49.3566 11.7369 47.4966 11.7169V11.6469C47.4866 7.87691 47.4866 4.11691 47.4766 0.346913C48.5266 0.106913 49.2366 0.726913 49.5466 1.53691C50.7566 4.66691 51.8366 7.82691 52.9566 10.9769Z" fill="#24326B"/>
<path id="Vector_13" d="M47.4864 0.356912C47.4964 4.12691 47.4964 7.88691 47.5064 11.6569C45.6564 11.6869 43.8464 11.4469 42.0764 10.8569C43.1764 7.79691 44.2564 4.72691 45.4064 1.68691C45.7364 0.806912 46.3764 0.156912 47.4864 0.356912Z" fill="#24428A"/>
<path id="Vector_14" d="M69.7664 13.1369C71.3864 13.2169 72.8964 13.7869 74.4164 14.2669C75.4064 14.5769 75.8964 15.7969 75.6664 16.8769C75.4764 17.7769 74.6364 18.3969 73.5764 18.4169C72.0464 18.4469 70.6764 17.7169 69.2064 17.4769C69.0064 17.4469 68.7964 17.4069 68.5964 17.3669C68.9364 15.9469 69.2464 14.5169 69.7664 13.1369Z" fill="#CFE0F3"/>
<path id="Vector_15" d="M29.0165 27.2069C32.1565 27.2069 35.3065 27.2069 38.4465 27.2069C38.4665 27.6269 38.4965 28.0469 38.4965 28.4669C38.5065 38.5169 38.5065 48.5669 38.5165 58.6169C38.4965 59.7669 38.5265 60.9269 38.4465 62.0769C38.3765 62.9569 38.6765 63.1869 39.5465 63.1769C44.8665 63.1369 50.1865 63.1569 55.5065 63.1469C55.8465 63.1469 56.1965 63.0769 56.5365 63.0369C62.7065 63.0269 68.8665 63.0169 75.0365 63.0169C76.2565 63.0169 77.4765 63.0269 78.6965 63.0269C80.0765 63.0169 81.1165 62.1069 81.1465 60.8669C81.1865 59.6469 80.1565 58.6569 78.7665 58.6169C77.8965 58.5969 77.0265 58.6169 76.1565 58.6269C78.9565 48.1769 81.7565 37.7169 84.5565 27.2669C86.9965 28.2069 87.9365 29.9969 87.9165 32.5969C87.8565 44.0669 87.8865 55.5269 87.8865 66.9969C87.8865 70.3469 86.1265 72.0869 82.7465 72.0869C59.2165 72.0869 35.6865 72.0869 12.1665 72.0869C8.87653 72.0869 7.09653 70.3169 7.09653 67.0369C7.09653 55.5369 7.16653 44.0369 7.04653 32.5369C7.01653 29.6269 8.73653 26.9969 12.1965 27.2069C13.7465 30.4869 16.2565 32.4969 19.8965 32.9969C19.4665 33.3969 19.0165 33.7769 18.6465 34.2469C16.4865 37.0169 16.5865 39.9769 17.8365 43.0569C18.1465 44.4969 18.5565 45.9069 19.1165 47.2769C19.3665 48.1369 19.6065 49.0069 19.8665 49.8669C20.7265 52.7869 21.5865 55.7069 22.4565 58.6369C20.3965 58.6369 18.3365 58.6169 16.2765 58.6369C14.8765 58.6569 13.8465 59.6169 13.8465 60.8469C13.8465 62.0769 14.9065 63.0469 16.2665 63.0469C18.7865 63.0469 21.2965 63.0369 23.8165 63.0269C28.3265 63.0469 32.8365 63.0569 37.3465 63.0869C37.8265 63.0869 37.9565 62.9469 37.8365 62.4769C37.5365 61.1969 37.3265 59.8869 36.8765 58.6369C35.8365 53.6269 34.6965 48.6469 33.4165 43.6869C33.2665 42.1769 32.9265 40.7069 32.4265 39.2669C32.2665 38.0869 31.9965 36.9469 31.4965 35.8669C30.3665 33.3969 28.3365 32.0869 25.7765 31.4769C27.1765 30.2969 28.3365 28.9369 29.0165 27.2069Z" fill="#4EC8ED"/>
<path id="Vector_16" d="M47.4964 82.1769C45.6764 82.1769 44.1564 80.6769 44.1364 78.8569C44.1164 76.9769 45.6264 75.4469 47.4964 75.4469C49.3664 75.4469 50.8864 76.9969 50.8664 78.8669C50.8364 80.6769 49.3164 82.1769 47.4964 82.1769Z" fill="#CFE0F3"/>
<path id="Vector_17" d="M56.5666 27.1969C59.6566 27.2069 62.7366 27.2069 65.8266 27.2169C65.7966 27.5669 65.7666 27.9169 65.7466 28.2669C65.0966 30.3469 64.5266 32.4469 64.0666 34.5769C63.4566 35.9969 63.1366 37.5069 62.8166 39.0169C62.2466 41.1969 61.6766 43.3769 61.1066 45.5669C60.5666 47.0069 60.1466 48.4669 59.9166 49.9869C59.3466 52.0869 58.7866 54.1969 58.2166 56.2969C57.8466 57.0269 57.7266 57.8169 57.5766 58.6069C57.5166 58.6069 57.4466 58.6069 57.3866 58.6169C57.1166 58.6169 56.8466 58.6169 56.5766 58.6169C56.5666 56.2369 56.5366 53.8569 56.5366 51.4769C56.5466 43.3769 56.5566 35.2869 56.5666 27.1969Z" fill="#4EC8ED"/>
<path id="Vector_18" d="M65.7366 28.2769C65.7666 27.9269 65.7966 27.5769 65.8166 27.2269C66.2166 25.9469 66.6166 24.6769 67.0266 23.3969C67.0866 23.8669 67.4266 23.9969 67.8166 24.0969C68.8566 24.3669 69.8966 24.6569 70.9366 24.9269C72.4066 25.3169 73.0466 26.3469 72.7066 27.8369C72.4466 28.9869 71.2566 29.6069 69.8766 29.2769C68.8266 29.0269 67.7966 28.7269 66.7466 28.4569C66.4266 28.3769 66.0866 28.3369 65.7366 28.2769Z" fill="#CFE0F3"/>
<path id="Vector_19" d="M62.8164 39.0169C63.1364 37.5069 63.4564 36.0069 64.0664 34.5769C65.3864 35.2469 66.8864 35.2869 68.2464 35.8169C69.4364 36.2769 70.2164 37.4069 69.9664 38.4369C69.6464 39.7369 68.5964 40.3969 67.1764 40.0969C65.7064 39.7869 64.2664 39.3769 62.8164 39.0169Z" fill="#CFE0F3"/>
<path id="Vector_20" d="M59.9165 49.9869C60.1465 48.4669 60.5665 47.0069 61.1065 45.5669C62.5265 45.9269 63.9565 46.2269 65.3465 46.6569C66.6565 47.0569 67.3365 48.2769 67.0065 49.4169C66.6565 50.6269 65.3165 51.2969 63.9665 50.9569C62.6165 50.6069 61.3265 50.0369 59.9165 49.9869Z" fill="#CFE0F3"/>
<path id="Vector_21" d="M57.3866 58.6169C57.4466 58.6169 57.5166 58.6069 57.5766 58.6069C59.6166 58.6069 61.6666 58.5969 63.7066 58.5969C63.7766 58.5969 63.8366 58.6069 63.9066 58.6169C64.8266 60.7969 62.8566 62.4469 60.7966 61.7069C59.5666 61.2669 58.2966 60.8969 56.9866 60.7269C57.1166 60.0169 57.2466 59.3169 57.3866 58.6169Z" fill="#AECEE7"/>
<path id="Vector_22" d="M63.7064 58.5869C61.6664 58.5869 59.6164 58.5969 57.5764 58.5969C57.7364 57.8069 57.8564 57.0169 58.2164 56.2869C59.6564 56.7069 61.0864 57.1169 62.5164 57.5469C63.0664 57.7169 63.5864 57.9269 63.7064 58.5869Z" fill="#CFE0F3"/>
<path id="Vector_23" d="M56.5665 27.1969C56.5565 35.2869 56.5365 43.3769 56.5365 51.4669C56.5365 53.8469 56.5565 56.2269 56.5765 58.6069C56.5765 59.6669 56.5765 60.7269 56.5765 61.7869C56.5665 62.2069 56.5565 62.6169 56.5465 63.0369C56.2065 63.0769 55.8565 63.1469 55.5165 63.1469C50.1965 63.1569 44.8765 63.1269 39.5565 63.1769C38.6865 63.1869 38.3865 62.9469 38.4565 62.0769C38.5465 60.9269 38.5065 59.7769 38.5265 58.6169C41.0865 58.6169 43.6365 58.5569 46.1965 58.6369C47.2665 58.6669 47.5365 58.3769 47.5365 57.2969C47.4965 45.6069 47.5165 33.9069 47.5165 22.2169L47.5065 22.1569C50.1665 23.0369 52.8565 23.1469 55.5765 22.4369C55.9165 22.3469 56.2365 22.2369 56.5065 22.0069C56.5165 23.7369 56.5465 25.4669 56.5665 27.1969Z" fill="#F48221"/>
<path id="Vector_24" d="M76.1566 58.6169C77.0266 58.6169 77.8966 58.5869 78.7666 58.6069C80.1566 58.6469 81.1766 59.6369 81.1466 60.8569C81.1066 62.0969 80.0766 63.0169 78.6966 63.0169C77.4766 63.0269 76.2566 63.0169 75.0366 63.0069C75.4066 61.5569 75.7866 60.0869 76.1566 58.6169Z" fill="#21AEE0"/>
<path id="Vector_25" d="M56.5664 61.7969C56.5664 60.7369 56.5664 59.6769 56.5664 58.6169C56.8364 58.6169 57.1064 58.6169 57.3764 58.6169C57.2464 59.3169 57.1164 60.0169 56.9764 60.7269C56.8464 61.0769 56.7064 61.4369 56.5664 61.7969Z" fill="#21AEE0"/>
<path id="Vector_26" d="M47.4965 22.2169C47.4965 33.9069 47.4765 45.6069 47.5165 57.2969C47.5165 58.3669 47.2465 58.6669 46.1765 58.6369C43.6265 58.5569 41.0665 58.6169 38.5065 58.6169C38.4965 48.5669 38.4965 38.5169 38.4865 28.4669C38.4865 28.0469 38.4565 27.6269 38.4365 27.2069C38.5965 25.3569 38.2865 23.4869 38.6165 21.6469C38.4865 22.3169 39.0665 22.2769 39.4165 22.3769C41.8665 23.0869 44.3265 23.0269 46.7765 22.3469C47.0165 22.2869 47.2565 22.2569 47.4965 22.2169Z" fill="#F7A227"/>
<path id="Vector_27" d="M25.7666 31.4569C28.3366 32.0669 30.3566 33.3769 31.4866 35.8469C31.9766 36.9269 32.2566 38.0769 32.4166 39.2469C30.4366 39.7669 28.4666 40.3469 26.4666 40.8069C24.7766 41.1969 23.1666 41.9069 21.4066 41.9969C21.1566 41.2769 20.8966 40.5569 20.6566 39.8369C19.8966 37.5769 19.5266 35.3069 20.3566 32.9769C22.3266 33.0569 24.0966 32.4169 25.7666 31.4569Z" fill="#EFF3FA"/>
<path id="Vector_28" d="M20.3565 32.9769C19.5265 35.3069 19.9065 37.5769 20.6565 39.8369C20.8965 40.5569 21.1565 41.2769 21.4065 41.9969C21.4065 42.0669 21.4065 42.1369 21.4065 42.2069C20.1965 42.3969 19.0765 42.9569 17.8465 43.0369C16.5965 39.9569 16.4965 36.9969 18.6565 34.2269C19.0265 33.7469 19.4765 33.3769 19.9065 32.9769C20.0565 32.9769 20.2065 32.9769 20.3565 32.9769Z" fill="#CFE0F3"/>
<path id="Vector_29" d="M33.4165 43.6669C34.6865 48.6169 35.8365 53.6069 36.8765 58.6169C33.7965 58.6169 30.7165 58.5769 27.6365 58.6369C26.7365 58.6569 26.3165 58.4469 26.0365 57.5169C24.9065 53.8869 23.9865 50.1869 22.6765 46.6069C22.6765 46.5369 22.6865 46.4769 22.6965 46.4069C22.9065 46.3669 23.1065 46.3469 23.3165 46.2969C26.6665 45.4269 30.0365 44.5469 33.4165 43.6669Z" fill="#EFF3FA"/>
<path id="Vector_30" d="M22.6665 46.6069C23.9765 50.1869 24.8965 53.8769 26.0265 57.5169C26.3165 58.4469 26.7265 58.6469 27.6265 58.6369C30.7065 58.5769 33.7865 58.6169 36.8665 58.6169C37.3265 59.8569 37.5265 61.1669 37.8365 62.4569C37.9465 62.9269 37.8165 63.0769 37.3465 63.0669C32.8365 63.0369 28.3265 63.0269 23.8165 63.0069C23.4365 61.5169 23.0265 60.0469 22.4565 58.6169C21.5965 55.6969 20.7265 52.7769 19.8665 49.8469C19.6165 48.9869 19.3665 48.1169 19.1165 47.2569C20.3565 47.3469 21.4265 46.5369 22.6665 46.6069Z" fill="#CFE0F3"/>
<path id="Vector_31" d="M33.4165 43.6669C30.0465 44.5469 26.6765 45.4269 23.2965 46.3069C23.0965 46.3569 22.8865 46.3769 22.6765 46.4169C22.2565 45.0169 21.8265 43.6169 21.4065 42.2169C21.4065 42.1469 21.4065 42.0769 21.4065 42.0069C23.1665 41.9169 24.7765 41.2069 26.4665 40.8169C28.4665 40.3569 30.4365 39.7869 32.4165 39.2569C32.9165 40.6869 33.2565 42.1569 33.4165 43.6669Z" fill="#CFE0F3"/>
<path id="Vector_32" d="M22.4564 58.6169C23.0264 60.0469 23.4264 61.5269 23.8164 63.0069C21.3064 63.0169 18.7864 63.0269 16.2664 63.0269C14.8964 63.0269 13.8464 62.0569 13.8464 60.8269C13.8464 59.5969 14.8764 58.6369 16.2764 58.6169C18.3264 58.5969 20.3864 58.6069 22.4564 58.6169Z" fill="#21AEE0"/>
<path id="Vector_33" d="M21.4064 42.2069C21.8264 43.6069 22.2564 45.0069 22.6764 46.4069C22.6664 46.4769 22.6664 46.5369 22.6564 46.6069C21.4264 46.5369 20.3464 47.3469 19.1164 47.2569C18.5564 45.8869 18.1564 44.4769 17.8364 43.0369C19.0764 42.9469 20.1964 42.3969 21.4064 42.2069Z" fill="#AECEE7"/>
</g>
</g>
<defs>
<clipPath id="clip0_249_362">
<rect width="94.26" height="103.18" fill="white" transform="translate(0.366455 0.306911)"/>
</clipPath>
</defs>
</svg>
