<svg width="100" height="100" viewBox="0 0 100 100" fill="none" xmlns="http://www.w3.org/2000/svg">
<g id="Frame" clip-path="url(#clip0_252_554)">
<g id="Group">
<path id="Vector" d="M84.174 62.4228C79.724 62.4228 75.284 62.4428 70.834 62.4028C70.024 62.3928 69.624 62.6428 69.264 63.4028C65.334 71.7228 58.774 76.5928 49.674 77.8228C44.024 78.5928 38.704 77.3228 33.854 74.3028C33.194 73.8928 32.794 73.8628 32.254 74.4628C31.334 75.4828 30.334 76.4228 29.354 77.3828C29.054 77.6828 28.894 77.9628 28.964 78.4328C29.184 79.8428 28.744 81.0928 27.744 82.0928C22.364 87.4928 16.984 92.8928 11.574 98.2628C9.93398 99.8928 7.48398 99.9828 5.75398 98.4628C4.32398 97.2028 2.97398 95.8428 1.71398 94.4228C0.223978 92.7428 0.293978 90.2728 1.87398 88.6728C7.28398 83.2128 12.734 77.7828 18.184 72.3528C19.094 71.4528 20.224 71.0828 21.484 71.2228C22.114 71.2928 22.554 71.1128 22.984 70.6628C23.874 69.7128 24.794 68.7828 25.754 67.9028C26.314 67.3928 26.294 67.0028 25.904 66.3728C22.994 61.7428 21.874 56.6628 22.264 51.2428C22.944 41.8528 29.684 33.2128 38.704 30.1428C50.954 25.9728 63.994 31.6328 69.304 43.4428C69.644 44.1928 70.044 44.3828 70.804 44.3828C79.734 44.3628 88.654 44.3628 97.584 44.3728C99.384 44.3728 99.734 44.7228 99.734 46.5528C99.734 51.2028 99.734 55.8428 99.734 60.4928C99.734 61.9628 99.294 62.4128 97.824 62.4128C93.264 62.4228 88.714 62.4228 84.174 62.4228ZM61.104 59.6228C67.494 59.6228 73.874 59.6128 80.264 59.6428C81.054 59.6428 81.314 59.4128 81.304 58.6228C81.274 55.1428 81.274 51.6728 81.304 48.1928C81.314 47.4028 81.054 47.1728 80.264 47.1728C67.464 47.1928 54.654 47.1928 41.854 47.1728C41.104 47.1728 40.884 47.3928 40.884 48.1428C40.914 51.5828 40.934 55.0328 40.874 58.4728C40.864 59.3928 41.124 59.6528 42.044 59.6528C48.394 59.6028 54.754 59.6228 61.104 59.6228ZM24.904 53.4828C25.004 54.7828 25.044 56.1828 25.324 57.5628C28.394 72.6028 45.124 79.9428 58.234 71.9828C61.714 69.8728 64.354 66.9528 66.244 63.3428C66.654 62.5528 66.464 62.3628 65.644 62.4128C64.874 62.4528 64.104 62.4628 63.334 62.4128C62.584 62.3528 62.154 62.6228 61.714 63.2628C57.654 69.1328 51.984 71.8628 44.924 71.2028C34.884 70.2628 27.854 61.2528 29.014 51.1428C29.814 44.1628 34.984 38.1028 41.794 36.1728C48.764 34.1928 56.414 36.4928 60.664 42.2028C61.974 43.9628 63.264 44.6428 65.344 44.4028C66.684 44.2528 66.704 44.3728 66.094 43.1828C62.054 35.3228 53.094 30.6028 44.324 31.6928C33.174 33.0828 24.934 42.2828 24.904 53.4828ZM58.904 44.3728C55.034 38.9228 47.564 36.8228 41.284 39.2828C34.864 41.8028 30.784 48.5828 31.724 55.1628C32.744 62.2528 38.214 67.7628 44.894 68.4328C50.464 68.9928 57.424 65.9828 58.714 62.4228C58.334 62.4228 57.964 62.4228 57.604 62.4228C51.784 62.4228 45.964 62.4228 40.154 62.4228C38.524 62.4228 38.094 61.9828 38.094 60.3328C38.094 55.6828 38.094 51.0428 38.094 46.3928C38.094 44.8128 38.534 44.3828 40.114 44.3828C45.964 44.3828 51.814 44.3828 57.664 44.3828C58.024 44.3728 58.384 44.3728 58.904 44.3728ZM8.50398 96.7328C9.04398 96.7528 9.45398 96.4728 9.82398 96.1128C15.094 90.8428 20.364 85.5828 25.624 80.3028C26.504 79.4228 26.484 78.6428 25.634 77.7728C24.564 76.6728 23.474 75.5828 22.374 74.5128C21.554 73.7228 20.724 73.7128 19.914 74.5328C14.604 79.8028 9.31398 85.0928 4.03398 90.3928C3.22398 91.2028 3.23398 92.0428 4.02398 92.8628C5.11398 93.9928 6.24398 95.0828 7.35398 96.1928C7.66398 96.5128 8.04398 96.7128 8.50398 96.7328ZM90.614 59.6228C92.454 59.6228 94.284 59.6028 96.124 59.6328C96.744 59.6428 97.034 59.4828 97.034 58.8028C97.014 55.2028 97.014 51.5928 97.034 47.9928C97.034 47.4028 96.824 47.1728 96.214 47.1728C92.444 47.1928 88.674 47.1928 84.894 47.1728C84.224 47.1728 84.044 47.4228 84.044 48.0528C84.064 51.6228 84.064 55.1928 84.044 58.7628C84.044 59.4128 84.254 59.6428 84.904 59.6328C86.804 59.6028 88.704 59.6228 90.614 59.6228ZM27.344 75.4128C27.514 75.2628 27.674 75.1328 27.814 75.0028C28.244 74.5828 28.664 74.1528 29.084 73.7328C30.694 72.1228 30.694 72.1228 29.144 70.5428C28.954 70.3528 28.764 70.1728 28.604 69.9628C28.304 69.5628 28.034 69.5028 27.654 69.9028C26.854 70.7528 26.024 71.5728 25.184 72.3728C24.824 72.7228 24.774 73.0028 25.164 73.3628C25.774 73.9328 26.344 74.5428 26.934 75.1228C27.054 75.2228 27.194 75.3028 27.344 75.4128Z" fill="#204672"/>
<path id="Vector_2" d="M32.0739 8.38282C32.1039 9.06282 31.7739 9.58282 31.3739 10.1028C30.1739 11.6828 30.8739 13.4028 32.8339 13.7228C34.6539 14.0128 35.2939 14.7628 35.3139 16.6228C35.3239 17.4628 35.3239 18.2928 35.3139 19.1328C35.2939 20.7428 34.6339 21.5128 33.0339 21.7728C32.3639 21.8828 31.7239 22.0228 31.2739 22.6028C30.6439 23.4128 30.6439 24.4528 31.3139 25.3828C32.4339 26.9228 32.3639 27.9328 31.0539 29.2628C30.4439 29.8828 29.8439 30.5128 29.2039 31.1028C28.1539 32.0828 27.0039 32.1328 25.8439 31.2828C23.9339 29.8828 22.3539 30.5528 22.0239 32.8828C21.8439 34.1828 20.9439 35.0628 19.6039 35.1328C18.5339 35.1928 17.4639 35.1928 16.3939 35.1328C15.0139 35.0528 14.1439 34.1728 14.0039 32.7628C13.9139 31.8228 13.5439 31.1028 12.6339 30.7228C11.7639 30.3528 11.0239 30.6028 10.3139 31.1628C8.98392 32.2028 7.86392 32.1328 6.66392 30.9528C6.01392 30.3228 5.37392 29.6928 4.75392 29.0328C3.71392 27.9528 3.64392 26.8128 4.52392 25.6028C5.86392 23.7528 5.21392 22.1528 2.97392 21.7728C1.41392 21.5128 0.783921 20.8128 0.703921 19.2228C0.663921 18.3528 0.653921 17.4828 0.693921 16.6128C0.773921 14.6628 1.35392 14.0328 3.29392 13.7128C4.66392 13.4928 5.41392 12.4728 5.18392 11.1528C5.10392 10.7028 4.84392 10.3628 4.58392 10.0128C3.63392 8.76282 3.69392 7.63282 4.77392 6.51282C5.44392 5.81282 6.12392 5.12282 6.83392 4.46282C7.89392 3.46282 9.00392 3.41282 10.1739 4.28282C12.0639 5.68282 13.7239 4.99282 14.0039 2.69282C14.1639 1.39282 15.0939 0.502821 16.4039 0.452821C17.4739 0.412821 18.5439 0.412821 19.6139 0.452821C20.9339 0.502821 21.8439 1.38282 22.0239 2.70282C22.3339 4.98282 23.9339 5.69282 25.7639 4.33282C27.0339 3.39282 28.1339 3.45282 29.2639 4.54282C29.9639 5.21282 30.6339 5.91282 31.3239 6.60282C31.8139 7.08282 32.1039 7.66282 32.0739 8.38282ZM27.5139 28.9928C27.8239 28.6328 28.0839 28.2328 28.4439 27.9428C29.0239 27.4628 29.1039 27.0928 28.6739 26.3828C26.9639 23.5528 28.5539 19.9428 31.8339 19.1528C32.4139 19.0128 32.6339 18.8328 32.5839 18.2628C32.5439 17.9028 32.5639 17.5228 32.5839 17.1628C32.6039 16.7428 32.5139 16.5328 32.0239 16.4328C28.2239 15.6928 26.9639 11.3528 28.8939 8.79282C29.1539 8.44282 29.1239 8.21282 28.8139 7.95282C28.5639 7.73282 28.3039 7.50282 28.1039 7.24282C27.6939 6.71282 27.3539 6.65282 26.7139 7.05282C23.8439 8.84282 20.1939 7.27282 19.4239 3.94282C19.2939 3.36282 19.0739 3.14282 18.4939 3.21282C18.1339 3.25282 17.7539 3.24282 17.3939 3.21282C16.9439 3.19282 16.7439 3.32282 16.6339 3.79282C15.7139 7.41282 12.2639 8.86282 9.09392 6.92282C8.62392 6.63282 8.40392 6.72282 8.10392 7.06282C7.90392 7.29282 7.70392 7.52282 7.46392 7.69282C6.88392 8.12282 6.92392 8.47282 7.30392 9.08282C8.92392 11.7028 7.64392 15.3628 4.71392 16.1928C3.52392 16.5228 3.30392 17.0528 3.39392 18.0928C3.44392 18.6628 3.43392 18.9928 4.18392 19.1628C7.55392 19.9428 9.03392 23.6228 7.21392 26.5628C6.90392 27.0628 6.87392 27.3628 7.34392 27.7228C7.65392 27.9628 7.93392 28.2628 8.19392 28.5728C8.47392 28.8928 8.68392 28.8628 9.02392 28.6228C12.2239 26.3928 16.2439 28.7028 16.6539 31.7628C16.8039 32.8628 17.8039 32.1328 18.3939 32.3028C18.9539 32.4628 19.2539 32.2128 19.3939 31.5728C20.1539 28.2128 23.8439 26.7028 26.7939 28.5128C27.0039 28.6428 27.1939 28.7728 27.5139 28.9928Z" fill="#204672"/>
<path id="Vector_3" d="M58.9041 44.3728C58.3841 44.3728 58.0341 44.3728 57.6741 44.3728C51.8241 44.3728 45.9741 44.3728 40.1241 44.3728C38.5341 44.3728 38.1041 44.8028 38.1041 46.3828C38.1041 51.0328 38.1041 55.6728 38.1041 60.3228C38.1041 61.9828 38.5341 62.4128 40.1641 62.4128C45.9841 62.4128 51.8041 62.4128 57.6141 62.4128C57.9841 62.4128 58.3441 62.4128 58.7241 62.4128C57.4441 65.9728 50.4841 68.9828 44.9041 68.4228C38.2141 67.7528 32.7541 62.2428 31.7341 55.1528C30.7841 48.5728 34.8641 41.7928 41.2941 39.2728C47.5541 36.8228 55.0341 38.9228 58.9041 44.3728Z" fill="#A9D1EF"/>
<path id="Vector_4" d="M8.5042 96.7328C8.0442 96.7128 7.6742 96.5228 7.3542 96.2028C6.2442 95.0928 5.1142 93.9928 4.0242 92.8728C3.2342 92.0528 3.2242 91.2228 4.0342 90.4028C9.3142 85.1028 14.6042 79.8128 19.9142 74.5328C20.7342 73.7228 21.5642 73.7228 22.3742 74.5128C23.4742 75.5828 24.5642 76.6728 25.6342 77.7728C26.4842 78.6528 26.4942 79.4228 25.6242 80.3028C20.3642 85.5828 15.0942 90.8428 9.8242 96.1128C9.4542 96.4728 9.0442 96.7428 8.5042 96.7328Z" fill="#A9D1EF"/>
<path id="Vector_5" d="M27.5141 28.9928C27.1841 28.7728 27.0041 28.6428 26.8041 28.5228C23.8541 26.7128 20.1741 28.2228 19.4041 31.5828C19.2541 32.2228 18.9641 32.4628 18.4041 32.3128C17.8141 32.1528 16.8141 32.8828 16.6641 31.7728C16.2541 28.7128 12.2241 26.3928 9.03412 28.6328C8.69412 28.8728 8.48412 28.9028 8.20412 28.5828C7.94412 28.2828 7.66412 27.9828 7.35412 27.7328C6.88412 27.3728 6.91412 27.0728 7.22412 26.5728C9.04412 23.6328 7.55412 19.9528 4.19412 19.1728C3.44412 19.0028 3.45412 18.6728 3.40412 18.1028C3.31412 17.0628 3.52412 16.5328 4.72412 16.2028C7.65412 15.3828 8.93412 11.7128 7.31412 9.09282C6.92412 8.47282 6.88412 8.12282 7.46412 7.70282C7.70412 7.53282 7.91412 7.29282 8.10412 7.07282C8.40412 6.72282 8.62412 6.64282 9.09412 6.93282C12.2641 8.86282 15.7141 7.41282 16.6341 3.79282C16.7541 3.33282 16.9541 3.19282 17.3841 3.22282C17.7541 3.24282 18.1241 3.26282 18.4841 3.22282C19.0641 3.15282 19.2841 3.37282 19.4141 3.95282C20.1941 7.27282 23.8441 8.84282 26.7041 7.06282C27.3441 6.66282 27.6741 6.73282 28.0941 7.25282C28.2941 7.51282 28.5541 7.74282 28.8041 7.96282C29.1141 8.23282 29.1441 8.46282 28.8841 8.80282C26.9641 11.3628 28.2141 15.7028 32.0141 16.4428C32.5041 16.5428 32.6041 16.7528 32.5741 17.1728C32.5541 17.5428 32.5441 17.9128 32.5741 18.2728C32.6341 18.8528 32.4041 19.0228 31.8241 19.1628C28.5441 19.9528 26.9541 23.5628 28.6641 26.3928C29.0941 27.1028 29.0141 27.4728 28.4341 27.9528C28.0941 28.2328 27.8241 28.6328 27.5141 28.9928ZM18.0141 8.61282C12.9341 8.61282 8.81412 12.7028 8.80412 17.7628C8.80412 22.8128 12.9241 26.9328 17.9941 26.9328C23.0541 26.9428 27.1941 22.8228 27.2041 17.7728C27.2241 12.7228 23.0941 8.61282 18.0141 8.61282Z" fill="#A7CFED"/>
<path id="Vector_6" d="M85.6241 51.8128C85.6541 50.7828 86.4241 49.5528 87.9041 48.8528C89.3441 48.1728 90.7941 48.3128 92.0541 49.3028C93.3341 50.3128 93.9141 51.6728 93.5141 53.2928C93.3441 54.0128 93.4941 54.5028 94.0441 54.9528C94.4241 55.2728 94.7741 55.6428 95.0941 56.0328C95.5941 56.6228 95.6141 57.2728 95.0841 57.8428C94.5541 58.4228 93.7141 58.5328 93.2941 57.9928C92.1441 56.5028 90.7041 56.3528 88.9741 56.3628C87.0541 56.3828 85.6141 54.4728 85.6241 51.8128ZM89.7441 51.2228C88.9741 51.2028 88.4041 51.7728 88.3941 52.4828C88.3941 53.1828 88.9741 53.8028 89.6441 53.7528C90.3541 53.6928 90.8141 53.2928 90.8441 52.5428C90.8741 51.7428 90.4041 51.3428 89.7441 51.2228Z" fill="#1F4571"/>
<path id="Vector_7" d="M18.014 8.61282C23.094 8.61282 27.224 12.7328 27.214 17.7828C27.204 22.8328 23.064 26.9528 18.004 26.9428C12.934 26.9328 8.80398 22.8228 8.81398 17.7728C8.80398 12.7028 12.924 8.61282 18.014 8.61282ZM17.924 24.1528C21.454 24.1928 24.364 21.4028 24.434 17.9028C24.494 14.3428 21.674 11.4328 18.104 11.3828C14.584 11.3328 11.654 14.1528 11.614 17.6328C11.554 21.2328 14.344 24.1028 17.924 24.1528Z" fill="#214773"/>
</g>
</g>
<defs>
<clipPath id="clip0_252_554">
<rect width="99.09" height="99.13" fill="white" transform="translate(0.633789 0.412811)"/>
</clipPath>
</defs>
</svg>
