<svg width="100" height="82" viewBox="0 0 100 82" fill="none" xmlns="http://www.w3.org/2000/svg">
<g id="Frame" clip-path="url(#clip0_251_513)">
<g id="Group">
<path id="Vector" d="M77.8763 0.582794C81.8863 0.662794 85.3063 3.42279 86.1263 7.38279C86.2963 8.21279 86.3463 9.08279 86.3463 9.93279C86.3663 16.6328 86.3363 23.3328 86.3763 30.0328C86.3863 31.0228 86.0563 31.1928 85.1463 31.1928C79.3463 31.1528 73.5363 31.2528 67.7363 31.1428C64.4563 31.0828 60.7563 33.5828 60.6763 38.1728C60.6463 39.9228 60.6463 41.6828 60.6263 43.4328C58.8663 43.8228 57.0563 43.8728 55.2663 44.0728C54.9563 44.1028 54.6163 44.1428 54.3863 43.8328C54.5363 43.3228 54.6463 42.8028 54.6463 42.2628C54.6363 39.0028 54.6563 35.7428 54.6363 32.4828C54.6263 30.3528 53.2863 29.0228 51.1363 29.0228C45.9463 29.0128 40.7463 29.0128 35.5563 29.0228C33.3663 29.0228 32.0463 30.3728 32.0363 32.5828C32.0263 35.7728 32.0163 38.9628 31.9963 42.1428C31.5963 42.1928 31.2363 42.0328 30.8663 41.9428C29.4763 41.6028 28.1463 41.0228 26.7063 40.8528C26.6963 38.1728 26.6763 35.4928 26.6663 32.8228C26.6563 30.2828 25.4063 29.0328 22.8563 29.0228C18.0363 29.0128 13.2163 28.9928 8.3963 28.9728C7.5563 27.4828 6.4063 26.1628 5.7363 24.5728C5.6163 24.2928 5.2063 24.0128 5.6163 23.6528C6.3163 23.9328 7.0263 24.1028 7.7963 24.1028C31.5063 24.0928 55.2163 24.0928 78.9163 24.0928C81.3063 24.0928 82.6363 22.7828 82.6463 20.3928C82.6663 16.2428 82.6663 12.0828 82.6463 7.93279C82.6363 5.68279 81.5663 4.51279 79.3363 4.24279C78.9863 3.98279 78.5763 4.09279 78.1963 4.09279C55.9063 4.08279 33.6263 4.08279 11.3363 4.09279C10.8763 4.09279 10.4063 4.03279 9.9563 4.21279C9.9363 4.24279 9.8963 4.25279 9.8363 4.22279C10.0463 3.36279 10.7563 2.91279 11.3663 2.40279C12.0063 1.86279 12.6663 1.36279 13.1363 0.652794C13.2663 0.632794 13.4063 0.602794 13.5363 0.582794C13.8563 0.602794 14.1763 0.642794 14.4963 0.642794C35.2963 0.642794 56.1063 0.642794 76.9063 0.642794C77.2363 0.642794 77.5563 0.602794 77.8763 0.582794Z" fill="#244089"/>
<path id="Vector_2" d="M99.4065 54.0228C99.4065 59.2128 99.3165 64.4128 99.4365 69.6028C99.5165 72.8328 97.2165 75.4128 93.6965 75.3828C85.1665 75.3128 76.6465 75.3028 68.1165 75.3828C64.3065 75.4128 62.2765 72.5528 62.3065 69.5528C62.4165 59.2028 62.4165 48.8428 62.3065 38.4928C62.2765 35.5528 64.2765 32.6728 68.1565 32.6928C76.6465 32.7528 85.1365 32.7028 93.6265 32.7128C97.2565 32.7128 99.3765 34.8228 99.3865 38.4328C99.4165 43.6328 99.4065 48.8328 99.4065 54.0228ZM80.8465 53.9728C84.8965 53.9728 88.9465 53.9728 92.9965 53.9728C94.7665 53.9728 95.7765 53.0828 95.7965 51.3028C95.8465 47.2928 95.8365 43.2728 95.7965 39.2628C95.7765 37.4928 94.7765 36.5628 93.0265 36.5628C84.9265 36.5528 76.8265 36.5528 68.7365 36.5628C66.9865 36.5628 66.0165 37.5428 66.0065 39.2928C65.9865 43.2728 65.9865 47.2428 66.0065 51.2228C66.0165 53.0328 66.9865 53.9628 68.8165 53.9728C72.8165 53.9728 76.8365 53.9728 80.8465 53.9728ZM82.1765 64.2128C82.1765 65.7128 82.1665 67.2228 82.1765 68.7228C82.1865 70.4728 82.9965 71.3128 84.7165 71.3228C87.5765 71.3428 90.4465 71.3428 93.3065 71.3228C94.9465 71.3128 95.7765 70.5228 95.7965 68.8928C95.8365 65.8128 95.8265 62.7328 95.7965 59.6528C95.7765 58.0128 94.9565 57.2228 93.3265 57.2128C90.4265 57.2028 87.5265 57.1928 84.6265 57.2128C83.0365 57.2228 82.1965 58.0828 82.1765 59.6828C82.1565 61.2028 82.1765 62.7128 82.1765 64.2128ZM65.9965 64.2228C65.9965 65.8328 65.9765 67.4428 66.0065 69.0528C66.0265 70.3828 66.7765 71.2728 68.0865 71.3028C71.1965 71.3628 74.3165 71.3628 77.4265 71.3128C78.7765 71.2928 79.5665 70.3628 79.5665 69.0028C79.5765 65.8528 79.5765 62.7028 79.5665 59.5528C79.5565 58.1528 78.7165 57.2628 77.3065 57.2428C74.2965 57.2128 71.2865 57.2128 68.2865 57.2428C66.7965 57.2528 66.0065 58.1028 65.9965 59.6128C65.9765 61.1428 65.9865 62.6828 65.9965 64.2228Z" fill="#FAD6AE"/>
<path id="Vector_3" d="M5.63642 23.6428C5.22642 24.0028 5.63642 24.2828 5.75642 24.5628C6.42642 26.1628 7.56642 27.4728 8.41642 28.9628C8.23642 28.9828 8.06642 29.0028 7.88642 29.0028C5.22642 29.0428 4.05642 30.2328 4.05642 32.8928C4.05642 36.0028 4.03642 39.1228 4.06642 42.2328C4.07642 44.2628 5.35642 45.6628 7.37642 45.6828C12.7064 45.7328 18.0464 45.7328 23.3764 45.6828C25.3964 45.6628 26.6564 44.2428 26.6864 42.2228C26.6964 41.7628 26.7164 41.2928 26.7264 40.8328C28.1664 41.0028 29.4864 41.5828 30.8864 41.9228C31.2564 42.0128 31.6164 42.1728 32.0164 42.1228C32.1864 44.5528 33.4164 45.7028 35.8964 45.7028C40.8764 45.7128 45.8564 45.6828 50.8364 45.7228C52.4064 45.7328 53.5964 45.1628 54.4064 43.8228C54.6364 44.1328 54.9764 44.0928 55.2864 44.0628C57.0764 43.8628 58.8764 43.8128 60.6464 43.4228C60.6564 45.2128 60.6664 47.0028 60.6964 48.7928C60.7064 49.2528 60.5564 49.4628 60.0864 49.4128C59.9064 49.3928 59.7264 49.4128 59.5464 49.4128C40.2364 49.4128 20.9164 49.4028 1.60642 49.4328C0.606418 49.4328 0.386418 49.1528 0.386418 48.1928C0.406418 35.3328 0.456418 22.4728 0.366418 9.61281C0.336418 4.77281 3.56642 1.47281 7.13642 0.772813C9.10642 0.382813 11.1364 0.552813 13.1364 0.652813C12.6664 1.36281 12.0064 1.86281 11.3664 2.40281C10.7564 2.91281 10.0464 3.36281 9.83642 4.22281C9.15642 4.23281 8.48642 4.24281 7.80642 4.25281C5.28642 4.27281 4.05642 5.49281 4.05642 7.99281C4.04642 12.0328 4.08642 16.0828 4.03642 20.1228C4.01642 21.5928 4.41642 22.7828 5.63642 23.6428Z" fill="#244089"/>
<path id="Vector_4" d="M60.6364 58.6928C60.6464 60.0928 60.6364 61.4828 60.6564 62.8828C60.6664 63.4228 60.4864 63.6928 59.9164 63.6428C59.7064 63.6228 59.4864 63.6428 59.2764 63.6428C42.5764 63.6428 25.8764 63.6128 9.18636 63.6628C3.97636 63.6728 0.13636 59.2628 0.43636 54.9128C0.50636 53.9128 0.47636 52.9028 0.43636 51.9028C0.40636 51.2228 0.59636 50.9228 1.33636 50.9528C2.47636 51.0028 3.62636 50.9828 4.77636 50.9828C4.84636 51.5928 5.34636 51.8728 5.75636 52.1928C7.69636 53.7128 9.95636 54.6028 12.2764 55.3428C18.6464 57.3828 25.2464 58.2328 31.8664 58.8828C32.5064 58.9428 33.2164 59.1428 33.8264 58.6728C34.5364 59.8128 35.5464 60.2428 36.8864 60.2328C41.1364 60.1928 45.3864 60.1928 49.6264 60.2328C50.7164 60.2428 51.6664 60.0228 52.5064 59.3428C55.2064 59.0728 57.9364 59.0828 60.6364 58.6928Z" fill="#403C5B"/>
<path id="Vector_5" d="M60.6363 58.6928C57.9363 59.0828 55.2063 59.0828 52.4963 59.3428C54.2263 56.7228 52.4163 54.2328 49.5163 54.3528C45.3063 54.5328 41.0963 54.3928 36.8763 54.4028C34.2563 54.4028 32.9963 56.1628 33.7963 58.6828C33.1863 59.1528 32.4763 58.9628 31.8363 58.8928C25.2063 58.2328 18.6163 57.3928 12.2463 55.3528C9.93634 54.6128 7.67634 53.7228 5.72634 52.2028C5.31634 51.8828 4.82634 51.6028 4.74634 50.9928C18.4163 50.9828 32.0763 50.9828 45.7463 50.9728C50.3963 50.9728 55.0463 50.9828 59.6963 50.9628C60.3463 50.9628 60.6763 51.0628 60.6563 51.8328C60.6263 54.1128 60.6463 56.4028 60.6363 58.6928Z" fill="#5C5577"/>
<path id="Vector_6" d="M27.9265 75.6728C29.7465 74.7228 31.7365 74.2728 33.7165 73.8628C42.3565 72.0828 50.8265 72.5928 59.1465 75.6428C60.5465 76.1528 60.9565 76.9528 60.8765 78.2628C59.3365 78.2828 57.8565 78.7128 56.3465 78.9228C52.5865 79.4528 48.8065 79.3528 45.0265 79.3428C41.7065 79.3328 38.4465 78.8028 35.1965 78.1328C32.6665 77.6128 30.2765 76.7228 27.9265 75.6728Z" fill="#5C5577"/>
<path id="Vector_7" d="M62.3564 74.5428C64.2164 76.5328 66.3564 77.0028 68.7464 76.9928C76.9464 76.9428 85.1564 76.9528 93.3664 76.9928C95.6264 77.0028 97.5964 76.4428 99.1964 74.7728C100.286 78.0928 97.8464 81.6228 94.2664 81.6528C85.3464 81.7228 76.4264 81.7128 67.4964 81.6528C64.4964 81.6328 62.3764 79.3128 62.3464 76.3028C62.3564 75.8028 62.3564 75.3028 62.3564 74.5428ZM80.9664 79.9928C82.6064 79.9928 84.2564 79.9828 85.8964 79.9928C86.4664 79.9928 86.9364 79.8528 86.9364 79.2028C86.9364 78.5328 86.4364 78.4328 85.8864 78.4328C82.5664 78.4328 79.2364 78.4328 75.9164 78.4328C75.3964 78.4328 74.8564 78.4528 74.8364 79.1528C74.8164 79.8928 75.3364 79.9928 75.9264 79.9828C77.6064 79.9828 79.2864 79.9928 80.9664 79.9928Z" fill="#D6B9B9"/>
<path id="Vector_8" d="M27.9265 75.6728C30.2765 76.7228 32.6665 77.6128 35.1965 78.1328C38.4465 78.7928 41.7065 79.3228 45.0265 79.3428C48.8065 79.3628 52.5865 79.4528 56.3465 78.9228C57.8565 78.7128 59.3365 78.2928 60.8765 78.2628C61.4165 79.4228 61.9965 80.5528 62.9165 81.4928C62.5865 81.8228 62.2465 81.6928 61.9565 81.6928C48.7865 81.7028 35.6165 81.7028 22.4465 81.7028C22.0165 81.7028 21.5965 81.7228 21.1765 81.5728C20.1965 81.2128 19.9265 80.2028 20.6565 79.4628C21.2665 78.8428 22.0365 78.4428 22.7865 78.0328C24.4365 77.1128 26.0565 76.1228 27.9265 75.6728Z" fill="#403C5B"/>
<path id="Vector_9" d="M50.7365 66.8728C50.7465 68.3028 50.7465 69.7328 50.7765 71.1628C50.7865 71.6828 50.6865 71.8028 50.1165 71.7228C45.4165 71.0228 40.7165 71.0528 35.9465 71.8028C35.9465 70.1428 35.9465 68.5028 35.9465 66.8728C40.8865 66.8728 45.8165 66.8728 50.7365 66.8728Z" fill="#244089"/>
<path id="Vector_10" d="M50.7363 66.8728C45.8063 66.8728 40.8763 66.8728 35.9563 66.8728C35.8663 65.2328 35.8663 65.2328 37.5263 65.2328C41.4463 65.2328 45.3663 65.2328 49.2863 65.2328C50.8363 65.2428 50.8363 65.2428 50.7363 66.8728Z" fill="#244089"/>
<path id="Vector_11" d="M77.8764 0.582809C77.5564 0.602809 77.2364 0.642809 76.9164 0.642809C56.1164 0.642809 35.3064 0.642809 14.5064 0.642809C14.1864 0.642809 13.8664 0.602809 13.5464 0.582809C13.8964 0.322809 14.3064 0.442809 14.6864 0.442809C35.3664 0.432809 56.0464 0.432809 76.7364 0.442809C77.1164 0.442809 77.5264 0.322809 77.8764 0.582809Z" fill="#6D6E6E"/>
<path id="Vector_12" d="M79.3563 4.22282C78.9663 4.24282 78.5763 4.27282 78.1763 4.27282C55.8263 4.27282 33.4863 4.27282 11.1363 4.27282C10.7463 4.27282 10.3563 4.22282 9.96631 4.19282C10.4163 4.01282 10.8863 4.07282 11.3463 4.07282C33.6363 4.07282 55.9163 4.07282 78.2063 4.07282C78.5963 4.07282 79.0063 3.96282 79.3563 4.22282Z" fill="#244089"/>
<path id="Vector_13" d="M9.71633 5.8428C10.1063 5.8328 10.5063 5.8028 10.8963 5.8028C33.4463 5.8028 55.9963 5.8028 78.5463 5.8028C80.6563 5.8028 81.0963 6.2428 81.0863 8.3928C81.0763 10.3928 81.0663 12.4028 81.0463 14.4028C80.7663 14.4728 80.4963 14.5528 80.2163 14.6228C75.6663 15.6928 71.0463 16.3428 66.3963 16.8128C62.2063 17.2428 57.9963 17.4628 53.7963 17.5828C50.4463 17.6828 47.0763 17.6628 43.7163 17.4728C40.2263 17.2828 36.7363 17.1228 33.2563 16.7928C28.3563 16.3228 23.4863 15.6128 18.7163 14.3828C15.8763 13.6528 13.0463 12.8428 10.5863 11.1628C9.49633 10.4228 8.44633 9.5828 8.58633 7.9828C8.66633 7.0928 9.26633 6.5228 9.71633 5.8428Z" fill="#037A96"/>
<path id="Vector_14" d="M9.71645 5.84279C9.26645 6.52279 8.66645 7.09279 8.58645 7.99279C8.44645 9.59279 9.49645 10.4328 10.5864 11.1728C13.0464 12.8528 15.8764 13.6628 18.7164 14.3928C23.4864 15.6128 28.3564 16.3328 33.2564 16.8028C36.7364 17.1328 40.2264 17.2928 43.7164 17.4828C47.0764 17.6728 50.4464 17.6928 53.7964 17.5928C57.9964 17.4628 62.2064 17.2528 66.3964 16.8228C71.0464 16.3528 75.6664 15.7028 80.2164 14.6328C80.4964 14.5628 80.7664 14.4828 81.0464 14.4128C81.0564 16.4928 81.0864 18.5628 81.0764 20.6428C81.0664 21.7428 80.4964 22.3528 79.3964 22.4828C79.0464 22.5228 78.6764 22.5128 78.3264 22.5128C55.0064 22.5128 31.6764 22.5128 8.35645 22.5128C6.01645 22.5128 5.60645 22.1028 5.60645 19.7628C5.60645 15.8928 5.60645 12.0228 5.60645 8.15279C5.60645 6.40279 6.17645 5.82279 7.88645 5.82279C8.50645 5.81279 9.10645 5.83279 9.71645 5.84279Z" fill="#4EC8ED"/>
<path id="Vector_15" d="M8.62634 30.6028C13.4963 30.5928 18.3563 30.5628 23.2263 30.5728C24.4163 30.5728 25.0963 31.2528 25.1163 32.4528C25.1463 34.8128 25.0963 37.1728 25.0763 39.5328C23.5963 39.9228 22.1363 40.3128 20.5863 40.4728C16.9263 40.8528 13.5563 40.1828 10.5463 38.0428C7.94634 36.1928 6.88634 33.2228 8.62634 30.6028Z" fill="#BB792A"/>
<path id="Vector_16" d="M8.62634 30.6028C6.89634 33.2228 7.94634 36.1928 10.5463 38.0428C13.5563 40.1828 16.9263 40.8528 20.5863 40.4728C22.1263 40.3128 23.5963 39.9328 25.0763 39.5328C25.0963 40.4628 25.1563 41.3928 25.1163 42.3228C25.0563 43.4828 24.4063 44.0928 23.2563 44.0928C18.0263 44.1028 12.7963 44.1028 7.56634 44.0928C6.28634 44.0928 5.63634 43.4528 5.63634 42.1828C5.61634 38.9628 5.61634 35.7328 5.63634 32.5128C5.64634 31.2728 6.31634 30.6228 7.56634 30.5628C7.90634 30.5528 8.26634 30.5928 8.62634 30.6028Z" fill="#FAAE19"/>
<path id="Vector_17" d="M51.8865 30.7128C52.7365 30.9328 53.1065 31.5628 53.1065 32.3628C53.1265 34.7428 53.0965 37.1228 53.0765 39.5028C52.8065 39.5828 52.5265 39.6628 52.2565 39.7428C48.3365 41.0028 44.4365 40.9528 40.6565 39.2828C38.1465 38.1728 36.1465 36.5228 35.7965 33.5228C35.5765 31.6328 36.3065 30.7228 38.1365 30.7228C42.7265 30.7228 47.3065 30.7228 51.8865 30.7128Z" fill="#C5C7E5"/>
<path id="Vector_18" d="M51.8865 30.7128C47.3065 30.7228 42.7265 30.7228 38.1465 30.7328C36.3165 30.7328 35.5865 31.6428 35.8065 33.5328C36.1565 36.5428 38.1465 38.1828 40.6665 39.2928C44.4465 40.9628 48.3465 41.0028 52.2665 39.7528C52.5365 39.6628 52.8165 39.5928 53.0865 39.5128C53.0965 40.4428 53.1465 41.3728 53.1165 42.3028C53.0865 43.4428 52.4465 44.0928 51.2965 44.0928C46.0065 44.1128 40.7065 44.1128 35.4165 44.0928C34.2765 44.0928 33.6165 43.4428 33.5965 42.2828C33.5665 38.9928 33.5665 35.7028 33.5965 32.4128C33.6065 31.3128 34.3365 30.5728 35.4165 30.5628C40.7465 30.5328 46.0765 30.5428 51.4065 30.5428C51.5665 30.5428 51.7265 30.6528 51.8865 30.7128Z" fill="#8992C8"/>
<path id="Vector_19" d="M93.5464 38.2428C94.1564 38.3428 94.2064 38.7928 94.2064 39.2828C94.1964 42.6728 94.1764 46.0528 94.1664 49.4428C90.2764 50.2428 86.3564 50.3828 82.4364 49.8528C78.7964 49.3628 75.3064 48.3528 72.2264 46.2228C70.2664 44.8728 68.8364 43.1728 68.4564 40.7428C68.1764 39.0028 68.7364 38.2928 70.4364 38.2928C78.1464 38.2728 85.8464 38.2628 93.5464 38.2428Z" fill="#037A96"/>
<path id="Vector_20" d="M93.5464 38.2428C85.8464 38.2528 78.1464 38.2628 70.4364 38.2728C68.7364 38.2728 68.1764 38.9828 68.4564 40.7228C68.8364 43.1628 70.2664 44.8528 72.2264 46.2028C75.3064 48.3328 78.7964 49.3428 82.4364 49.8328C86.3564 50.3628 90.2764 50.2328 94.1664 49.4228C94.3364 52.4028 94.3364 52.4028 91.3864 52.4028C84.0764 52.4028 76.7764 52.4028 69.4664 52.4028C67.6864 52.4028 67.5364 52.2428 67.5364 50.4328C67.5364 46.9928 67.5364 43.5528 67.5364 40.1128C67.5364 38.2228 67.6764 38.0728 69.6264 38.0728C76.2164 38.0728 82.8064 38.0528 89.3964 38.0828C90.7764 38.1128 92.1764 37.9228 93.5464 38.2428Z" fill="#4EC8ED"/>
<path id="Vector_21" d="M86.9263 58.8928C89.0563 58.8728 91.1963 58.8528 93.3263 58.8228C93.9363 58.8128 94.2263 59.0428 94.2163 59.7028C94.1763 62.3728 94.1763 65.0428 94.1663 67.7128C92.9363 67.9928 91.7063 68.0428 90.4763 67.7128C86.2663 66.6028 84.5263 62.2828 86.9263 58.8928Z" fill="#C5C7E5"/>
<path id="Vector_22" d="M86.9264 58.8928C84.5264 62.2928 86.2664 66.6028 90.4764 67.7228C91.7164 68.0528 92.9364 68.0028 94.1664 67.7228C94.1764 67.8328 94.1964 67.9328 94.1964 68.0428C94.2364 69.7028 94.2364 69.7128 92.6064 69.7128C90.0364 69.7128 87.4564 69.6828 84.8864 69.7328C84.0364 69.7528 83.7564 69.4528 83.7664 68.6228C83.7964 65.7328 83.8064 62.8328 83.7664 59.9428C83.7564 59.1028 84.0464 58.7728 84.8864 58.8428C85.5664 58.8828 86.2464 58.8728 86.9264 58.8928Z" fill="#8992C8"/>
<path id="Vector_23" d="M70.5565 58.9128C72.7665 58.8928 74.9765 58.8728 77.1865 58.8528C77.7765 58.8428 78.0265 59.1328 78.0265 59.7028C78.0065 62.3728 77.9965 65.0528 77.9765 67.7228C77.7265 67.7628 77.4865 67.7828 77.2365 67.8328C74.5465 68.4428 71.4465 66.9728 70.2165 64.5228C69.2365 62.5728 69.6365 60.7328 70.5565 58.9128Z" fill="#BB792A"/>
<path id="Vector_24" d="M70.5563 58.9128C69.6363 60.7328 69.2363 62.5728 70.2163 64.5228C71.4463 66.9728 74.5463 68.4428 77.2363 67.8328C77.4763 67.7828 77.7263 67.7528 77.9763 67.7228C77.9963 67.9028 78.0163 68.0728 78.0263 68.2528C78.0463 69.6828 78.0263 69.7028 76.6263 69.7028C73.9863 69.7028 71.3363 69.6728 68.6963 69.7228C67.7963 69.7428 67.5163 69.4228 67.5263 68.5428C67.5663 65.7228 67.5763 62.9028 67.5263 60.0828C67.5063 59.1528 67.8063 58.7528 68.7463 58.8528C69.3463 58.9028 69.9463 58.8928 70.5563 58.9128Z" fill="#FAAE19"/>
<path id="Vector_25" d="M35.9565 56.1328C36.2965 55.8528 36.7065 55.9428 37.0965 55.9428C41.2365 55.9428 45.3865 55.9428 49.5265 55.9428C49.8465 55.9428 50.1765 55.9428 50.4865 56.0128C51.1965 56.1728 51.6365 56.6228 51.6065 57.3628C51.5765 58.1128 51.0965 58.5028 50.3965 58.6428C50.2565 58.6728 50.1165 58.6628 49.9665 58.6628C45.5765 58.6628 41.1765 58.6628 36.7865 58.6628C36.0065 58.6628 35.3765 58.4328 35.1565 57.5928C39.5565 57.6028 43.9465 57.6128 48.3465 57.6228C48.8765 57.6228 49.3265 57.4428 49.6965 57.0728C49.9165 56.8528 50.2565 56.6128 50.1365 56.2828C50.0165 55.9628 49.6265 56.1428 49.3665 56.1428C44.8965 56.1428 40.4265 56.1328 35.9565 56.1328Z" fill="#244089"/>
<path id="Vector_26" d="M35.9563 56.1328C40.4263 56.1328 44.8863 56.1428 49.3563 56.1528C49.6163 56.1528 50.0063 55.9828 50.1263 56.2928C50.2563 56.6328 49.9163 56.8628 49.6863 57.0828C49.3163 57.4528 48.8663 57.6328 48.3363 57.6328C43.9363 57.6228 39.5463 57.6128 35.1463 57.6028C35.0463 57.3928 35.0463 57.1828 35.1563 56.9728C35.1963 56.9028 35.2263 56.8328 35.2663 56.7528C35.3963 56.4328 35.6063 56.2128 35.9563 56.1328Z" fill="#244089"/>
<path id="Vector_27" d="M35.2865 56.7628C35.2465 56.8328 35.2165 56.9028 35.1765 56.9828C35.2065 56.9128 35.2465 56.8328 35.2865 56.7628Z" fill="#244089"/>
</g>
</g>
<defs>
<clipPath id="clip0_251_513">
<rect width="99.1" height="81.3" fill="white" transform="translate(0.366455 0.412811)"/>
</clipPath>
</defs>
</svg>
