<svg width="115" height="106" viewBox="0 0 115 106" fill="none" xmlns="http://www.w3.org/2000/svg">
<g id="Frame" clip-path="url(#clip0_249_447)">
<path id="Vector" d="M61.4177 105.907C90.5783 105.907 114.218 82.2675 114.218 53.1069C114.218 23.9463 90.5783 0.306911 61.4177 0.306911C32.257 0.306911 8.61768 23.9463 8.61768 53.1069C8.61768 82.2675 32.257 105.907 61.4177 105.907Z" fill="#FAAE19"/>
<g id="Group">
<path id="Vector_2" d="M0.9375 14.8569C1.6075 13.2569 2.0575 12.9469 3.8875 12.9469C10.3675 12.9469 16.8375 12.9469 23.3175 12.9469C23.7575 12.9469 24.2075 12.9269 24.6475 12.9069C24.9575 12.9169 25.2575 12.9369 25.5675 12.9369C44.1875 12.9369 62.8075 12.9369 81.4275 12.9369C81.7375 12.9369 82.0375 12.9169 82.3475 12.9069C85.5175 12.9169 88.6875 12.9369 91.8575 12.9469C94.0675 12.9569 94.7675 13.6769 94.7775 15.9069C94.7875 19.1069 94.7975 22.3169 94.8075 25.5169C94.7975 25.8269 94.7775 26.1269 94.7775 26.4369C94.7775 37.4169 94.7775 48.3969 94.7775 59.3769C93.2875 59.3769 91.7875 59.3669 90.2975 59.3669C90.2975 46.0269 90.2975 32.6869 90.2975 19.3369C90.2975 17.5769 90.0975 17.3769 88.3775 17.3769C61.3875 17.3769 34.3975 17.3769 7.4075 17.3769C5.6575 17.3769 5.4575 17.5769 5.4575 19.2969C5.4575 32.7769 5.4575 46.2569 5.4575 59.7369C5.4575 61.4969 5.6175 61.6569 7.3975 61.6569C26.3875 61.6569 45.3675 61.6569 64.3575 61.6569C64.3575 63.1669 64.3575 64.6769 64.3575 66.1869C47.1175 66.1869 29.8775 66.1769 12.6375 66.1769C10.1075 66.1769 7.5775 66.1869 5.0475 66.1969C3.6675 66.1969 2.2975 66.1869 0.9375 66.1869C0.9375 49.0769 0.9375 31.9669 0.9375 14.8569Z" fill="#465FA1"/>
<path id="Vector_3" d="M106.058 90.8169C105.338 90.7169 105.128 91.3969 104.758 91.7569C104.108 92.3969 103.598 92.4769 102.958 91.7769C102.168 90.9169 101.298 90.1469 100.508 89.2969C99.8376 88.5669 99.2776 88.6169 98.6376 89.3269C97.9776 90.0569 97.2276 90.7169 96.5476 91.4369C95.9776 92.0469 95.6676 91.8769 95.4076 91.1769C94.6576 89.1269 93.8976 87.0769 93.1376 85.0369C92.2276 82.5469 91.3176 80.0569 90.4176 77.5569C90.3076 77.2469 90.0276 76.8869 90.2776 76.6069C90.5576 76.2969 90.9076 76.6469 91.1976 76.7469C93.8276 77.6669 96.4476 78.6169 99.0676 79.5569C100.848 80.4369 102.768 80.9669 104.598 81.6869C105.678 82.1069 105.718 82.2369 104.938 83.0369C104.238 83.7469 103.548 84.4569 102.828 85.1369C102.268 85.6669 102.208 86.1469 102.808 86.6869C103.918 87.6969 104.848 88.8869 106.048 89.7969C106.058 90.1369 106.058 90.4769 106.058 90.8169Z" fill="#2A3E7C"/>
<path id="Vector_4" d="M0.9375 66.1869C2.2975 66.1969 3.6675 66.1969 5.0275 66.2069C5.0275 69.3369 5.0575 72.4769 5.0275 75.6069C5.0175 77.0769 4.9075 78.5369 6.0875 79.6769C5.1075 79.6969 4.1175 79.7269 3.1375 79.7269C2.0975 79.7269 1.4775 79.0769 0.9375 78.2969C0.9375 74.2569 0.9375 70.2169 0.9375 66.1869Z" fill="#283163"/>
<path id="Vector_5" d="M99.0675 79.5569C96.4475 78.6169 93.8275 77.6769 91.1975 76.7469C90.9075 76.6469 90.5575 76.2969 90.2775 76.6069C90.0175 76.8869 90.2975 77.2469 90.4175 77.5569C91.3275 80.0469 92.2375 82.5469 93.1375 85.0369C93.0875 85.0569 93.0475 85.0669 92.9975 85.0869C92.5575 85.0769 92.1175 85.0469 91.6675 85.0469C84.2075 85.0369 76.7475 85.0269 69.2875 85.0169C68.6075 84.6869 68.4775 84.1169 68.4775 83.4069C68.4975 75.9669 68.4975 68.5369 68.4775 61.0969C68.4775 60.4369 68.6175 59.8969 69.0875 59.4369C70.3475 59.4269 71.6175 59.4169 72.8775 59.4069C78.6875 59.3869 84.4975 59.3769 90.3075 59.3669C91.7975 59.3669 93.2975 59.3769 94.7875 59.3769C95.6775 59.3869 96.5575 59.3969 97.4475 59.4069C98.8575 59.4169 99.0975 59.6569 99.0975 61.0769C99.1075 65.7469 99.1175 70.4169 99.1275 75.0869C99.0975 76.5869 99.0875 78.0669 99.0675 79.5569Z" fill="#5FC1D7"/>
<path id="Vector_6" d="M64.3377 79.7069C62.5377 79.7269 60.7277 79.7469 58.9277 79.7669C52.8877 79.7669 46.8377 79.7669 40.7977 79.7569C39.4577 79.7569 38.1277 79.7669 36.7877 79.7769C36.7177 79.7769 36.6577 79.7469 36.6277 79.6869C36.2877 79.4469 35.8977 79.5369 35.5277 79.5369C27.4577 79.5369 19.3777 79.5369 11.3077 79.5369C10.9377 79.5369 10.5477 79.4569 10.2077 79.6869C8.83771 79.6869 7.45771 79.6869 6.08771 79.6769C4.91771 78.5269 5.01771 77.0669 5.02771 75.6069C5.05771 72.4769 5.02771 69.3369 5.02771 66.2069C7.55771 66.1969 10.0877 66.1869 12.6177 66.1869C29.8577 66.1869 47.0977 66.1969 64.3377 66.1969C64.3477 70.6969 64.3477 75.1969 64.3377 79.7069ZM50.6477 73.0069C50.6577 71.4069 49.3677 70.0869 47.8277 70.1169C46.3577 70.1469 45.0877 71.4669 45.0777 72.9969C45.0677 74.6469 46.2477 75.8269 47.9177 75.8269C49.4877 75.8369 50.6377 74.6469 50.6477 73.0069Z" fill="#2A3E7C"/>
<path id="Vector_7" d="M10.2075 79.6769C10.5475 79.4469 10.9375 79.5269 11.3075 79.5269C19.3775 79.5269 27.4575 79.5269 35.5275 79.5269C35.8975 79.5269 36.2875 79.4469 36.6275 79.6769C28.2975 79.6869 19.9675 79.6969 11.6375 79.7069C11.1975 79.7069 10.7475 79.7369 10.3075 79.7469C10.2775 79.7369 10.2375 79.7069 10.2075 79.6769Z" fill="#283163"/>
<path id="Vector_8" d="M90.2973 59.3669C84.4873 59.3769 78.6773 59.3969 72.8673 59.4069C71.6073 59.4069 70.3373 59.4269 69.0773 59.4369C67.9273 59.4269 66.7773 59.4169 65.6373 59.4069C64.7973 59.3969 64.4073 59.8369 64.3873 60.6469C64.3773 60.9869 64.3573 61.3169 64.3473 61.6569C45.3573 61.6569 26.3773 61.6569 7.38727 61.6569C5.60727 61.6569 5.44727 61.4969 5.44727 59.7369C5.44727 46.2569 5.44727 32.7769 5.44727 19.2969C5.44727 17.5769 5.64727 17.3769 7.39727 17.3769C34.3873 17.3769 61.3773 17.3769 88.3673 17.3769C90.0973 17.3769 90.2873 17.5769 90.2873 19.3369C90.2973 32.6869 90.2973 46.0269 90.2973 59.3669ZM45.4773 21.0369C44.9973 21.0269 44.5273 21.0069 44.0473 21.0169C42.9673 21.0269 42.6473 21.3469 42.6273 22.4069C42.6173 23.1569 42.6273 23.9069 42.6273 24.6569C42.6273 27.4769 42.6273 27.4769 45.4773 27.3469C46.2273 27.3569 46.9773 27.3669 47.7173 27.3769C48.5473 27.3869 48.9873 26.9769 48.9873 26.1369C48.9873 24.8469 48.9873 23.5569 48.9873 22.2569C48.9873 21.4169 48.5473 21.0069 47.7173 21.0169C46.9773 21.0269 46.2273 21.0369 45.4773 21.0369ZM11.3973 49.7669C10.9573 49.7569 10.5173 49.7269 10.0673 49.7369C8.83727 49.7569 8.55727 50.0369 8.53727 51.2369C8.52727 51.9569 8.53727 52.6669 8.53727 53.3869C8.53727 56.2269 8.54727 56.2369 11.3873 56.0969C12.1373 56.1069 12.8873 56.1169 13.6273 56.1169C14.4473 56.1169 14.8973 55.7069 14.9073 54.8669C14.9173 53.5769 14.9073 52.2869 14.9073 50.9869C14.9073 50.1369 14.4673 49.7469 13.6373 49.7469C12.8873 49.7569 12.1373 49.7569 11.3973 49.7669ZM45.4673 56.0869C46.2173 56.0969 46.9673 56.1069 47.7073 56.1069C48.5273 56.1069 48.9773 55.6969 48.9873 54.8569C48.9973 53.5669 48.9873 52.2769 48.9873 50.9769C48.9873 50.1269 48.5473 49.7369 47.7173 49.7369C46.9673 49.7469 46.2273 49.7469 45.4773 49.7569C45.0373 49.7469 44.5973 49.7169 44.1473 49.7269C42.9173 49.7469 42.6373 50.0269 42.6173 51.2269C42.6073 51.9469 42.6173 52.6569 42.6173 53.3769C42.6173 56.2169 42.6273 56.2269 45.4673 56.0869ZM11.3973 21.4469C10.9173 21.4369 10.4473 21.4169 9.96727 21.4269C8.88727 21.4369 8.56727 21.7569 8.54727 22.8169C8.53727 23.5669 8.54727 24.3169 8.54727 25.0669C8.54727 27.8869 8.54727 27.8869 11.3973 27.7569C12.1473 27.7669 12.8973 27.7769 13.6373 27.7869C14.4673 27.7969 14.9073 27.3869 14.9073 26.5469C14.9173 25.2569 14.9073 23.9669 14.9073 22.6669C14.9073 21.8269 14.4673 21.4169 13.6373 21.4269C12.8873 21.4369 12.1473 21.4469 11.3973 21.4469ZM16.0973 28.9869C15.4973 29.1369 15.3073 29.5769 15.3173 30.1369C15.3173 35.8969 15.3173 41.6469 15.3173 47.4069C15.3173 47.9669 15.4973 48.4069 16.0973 48.5669C16.4973 48.8469 16.9573 48.7269 17.3973 48.7269C24.9173 48.7169 32.4373 48.6969 39.9573 48.6669C40.2973 48.6669 40.6373 48.6569 40.9773 48.6069C41.6473 48.5169 42.0073 48.1369 42.0073 47.4369C42.0073 41.6569 42.0073 35.8769 42.0073 30.1069C42.0073 29.4069 41.6473 29.0269 40.9773 28.9369C40.6373 28.8869 40.2973 28.8769 39.9573 28.8769C32.4373 28.8569 24.9173 28.8369 17.3973 28.8169C16.9673 28.8169 16.5073 28.7069 16.0973 28.9869ZM52.7973 44.8769C53.1173 45.0669 53.4673 44.9869 53.7973 44.9869C55.6773 44.9669 57.5573 44.9069 59.4373 44.9069C67.8173 44.8969 76.1873 44.9069 84.5673 44.9069C86.2673 44.9069 86.4073 44.7669 86.4073 43.1069C86.4073 38.6969 86.4073 34.2869 86.4073 29.8769C86.4073 28.0569 86.3073 27.9569 84.4973 27.9569C74.9273 27.9069 65.3573 28.0569 55.7873 27.8869C54.8073 27.8669 53.8073 27.7469 52.8373 27.9869C52.0973 28.0169 51.8473 28.4469 51.8473 29.1269C51.8473 33.9969 51.8473 38.8569 51.8473 43.7269C51.8373 44.3769 52.0673 44.8269 52.7973 44.8769ZM57.8573 50.7869C59.2573 50.7869 60.6573 50.7969 62.0573 50.7869C63.2173 50.7769 63.8873 50.2369 63.9173 49.3169C63.9473 48.4669 63.1873 47.7369 62.1173 47.7269C59.3173 47.6969 56.5173 47.6969 53.7173 47.7269C52.6773 47.7369 52.0473 48.3969 52.0673 49.2869C52.0873 50.1969 52.7173 50.7769 53.7673 50.7869C55.1273 50.7969 56.4873 50.7869 57.8573 50.7869ZM57.9373 52.4269C56.5373 52.4269 55.1373 52.4169 53.7373 52.4269C52.7073 52.4369 52.0673 53.0269 52.0573 53.9369C52.0473 54.7869 52.6573 55.4669 53.6173 55.4769C56.4873 55.5169 59.3473 55.5169 62.2173 55.4769C63.2073 55.4669 63.9573 54.6769 63.9073 53.8969C63.8473 53.0369 63.1573 52.4369 62.1273 52.4269C60.7373 52.4169 59.3373 52.4269 57.9373 52.4269ZM81.2773 50.7869C82.6073 50.7869 83.9373 50.7969 85.2673 50.7869C86.3073 50.7769 86.9473 50.1969 86.9573 49.2869C86.9773 48.4269 86.3673 47.7469 85.4173 47.7269C82.6873 47.6869 79.9673 47.6869 77.2373 47.7269C76.2373 47.7369 75.6273 48.4469 75.6673 49.3569C75.7073 50.3169 76.1973 50.7569 77.2873 50.7769C78.6173 50.7969 79.9473 50.7869 81.2773 50.7869ZM81.3273 52.4269C79.9973 52.4269 78.6573 52.4169 77.3273 52.4269C76.2773 52.4369 75.7173 52.9369 75.6673 53.8369C75.6173 54.7569 76.2273 55.4669 77.2273 55.4869C79.9573 55.5269 82.6973 55.5269 85.4273 55.4869C86.3773 55.4769 86.9773 54.7669 86.9473 53.9069C86.9173 53.0369 86.2873 52.4569 85.3173 52.4369C83.9973 52.4169 82.6673 52.4269 81.3273 52.4269ZM69.7373 50.7869C70.7973 50.7869 71.8573 50.8069 72.9073 50.7769C73.9173 50.7569 74.5373 50.1969 74.5773 49.3369C74.6173 48.6269 73.9573 47.7869 73.1073 47.7669C70.8573 47.6969 68.6073 47.6969 66.3573 47.7569C65.4873 47.7769 64.9373 48.5469 64.9873 49.3669C65.0373 50.1769 65.6573 50.7669 66.5573 50.7869C67.6173 50.7969 68.6773 50.7869 69.7373 50.7869ZM69.7473 52.4269C68.6873 52.4269 67.6373 52.4069 66.5773 52.4369C65.6773 52.4569 65.0473 53.0369 64.9973 53.8369C64.9373 54.6569 65.4773 55.4369 66.3473 55.4569C68.5973 55.5269 70.8473 55.5169 73.0973 55.4569C73.9473 55.4369 74.6373 54.6069 74.5973 53.9069C74.5473 53.0869 73.8673 52.4569 72.9273 52.4369C71.8673 52.4069 70.8073 52.4269 69.7473 52.4269ZM74.6973 23.2469C74.6973 21.1269 74.5973 21.0169 72.7773 21.0169C70.5173 21.0169 70.3973 21.1269 70.3873 23.1269C70.3873 25.2169 70.4973 25.3369 72.4473 25.3369C74.6873 25.3369 74.6973 25.3269 74.6973 23.2469ZM80.4473 23.2269C80.4473 21.1169 80.3673 21.0169 78.4973 21.0169C76.2673 21.0169 76.1373 21.1269 76.1373 23.1469C76.1373 25.2069 76.2573 25.3369 78.2173 25.3369C80.4273 25.3369 80.4473 25.3169 80.4473 23.2269ZM83.9873 25.3369C86.1273 25.3369 86.1873 25.2769 86.1973 23.4069C86.1973 21.0869 86.1473 21.0169 84.2273 21.0169C82.0173 21.0169 81.8873 21.1269 81.8873 23.1669C81.8873 25.2069 82.0073 25.3369 83.9873 25.3369ZM44.6373 45.3969C44.6373 45.7069 44.6273 46.0069 44.6373 46.3169C44.6573 47.1869 45.0873 47.7669 45.9373 47.8869C46.8773 48.0169 47.4173 47.4769 47.6273 46.6169C47.7273 46.2269 47.7173 45.8069 47.7173 45.3969C47.7173 43.8269 47.1373 42.9869 46.0773 43.0169C45.0973 43.0369 44.6373 43.7969 44.6373 45.3969ZM9.73727 45.3969C9.73727 45.7069 9.72727 46.0069 9.73727 46.3169C9.75727 47.1869 10.1873 47.7669 11.0373 47.8869C11.9773 48.0169 12.5073 47.4669 12.7273 46.6069C12.8173 46.2469 12.8073 45.8669 12.8073 45.4969C12.8173 43.8269 12.2573 42.9869 11.1673 43.0169C10.1973 43.0369 9.73727 43.7969 9.73727 45.3969ZM44.6373 38.4269H44.6473C44.6473 38.7669 44.6273 39.1069 44.6473 39.4469C44.6973 40.2669 45.1473 40.7969 45.9573 40.9069C46.7773 41.0169 47.3073 40.5869 47.5873 39.8169C47.7573 39.3569 47.7273 38.8769 47.7173 38.4069C47.7073 36.8369 47.1173 35.9969 46.0673 36.0369C45.1073 36.0769 44.6373 36.8269 44.6273 38.3269C44.6373 38.3569 44.6373 38.3869 44.6373 38.4269ZM9.73727 38.4269H9.74727C9.74727 38.7669 9.72727 39.1069 9.74727 39.4469C9.79727 40.2669 10.2473 40.7969 11.0573 40.8969C11.8873 41.0069 12.4073 40.5669 12.6873 39.7969C12.8673 39.2969 12.8273 38.7869 12.8173 38.2769C12.8073 36.7969 12.1873 35.9769 11.1673 36.0169C10.2273 36.0569 9.73727 36.7969 9.73727 38.2069C9.73727 38.2969 9.73727 38.3569 9.73727 38.4269ZM44.6373 31.4869C44.6473 31.7969 44.6373 32.0969 44.6473 32.4069C44.6773 33.2269 45.1073 33.7769 45.9073 33.9169C46.7773 34.0669 47.3273 33.6069 47.6073 32.7869C47.8173 32.1569 47.7573 31.4969 47.7073 30.8569C47.6373 29.7169 46.9173 28.9769 46.0273 29.0469C45.1673 29.1069 44.6573 29.8169 44.6373 30.9769C44.6373 31.1469 44.6373 31.3169 44.6373 31.4869ZM9.73727 31.5269C9.73727 31.7969 9.73727 32.0769 9.73727 32.3469C9.75727 33.2169 10.1773 33.7969 11.0273 33.9269C11.9573 34.0669 12.5173 33.5269 12.7273 32.6669C12.9073 31.8969 12.8873 31.1169 12.7073 30.3369C12.5073 29.4869 11.9373 29.0069 11.0973 29.0869C10.2673 29.1669 9.75727 29.7069 9.73727 30.6069C9.73727 30.9069 9.73727 31.2169 9.73727 31.5269ZM25.3073 51.2069C24.9973 51.1969 24.6973 51.1869 24.3873 51.2069C23.4173 51.2769 22.8473 51.8569 22.8573 52.7569C22.8673 53.6569 23.4373 54.2269 24.4173 54.2769C25.0273 54.3069 25.6473 54.3269 26.2473 54.2569C27.0973 54.1569 27.5973 53.6569 27.6373 52.7769C27.6673 51.9469 27.0873 51.2969 26.2173 51.2169C25.9273 51.1769 25.6173 51.2069 25.3073 51.2069ZM32.2373 54.2569C32.2373 54.2669 32.2373 54.2669 32.2373 54.2769C32.4773 54.2769 32.7173 54.2869 32.9473 54.2769C33.9773 54.2369 34.6173 53.6569 34.6173 52.7569C34.6273 51.8469 33.9973 51.2369 32.9673 51.2069C32.3573 51.1869 31.7373 51.1469 31.1373 51.2369C30.3473 51.3469 29.8573 51.8269 29.8373 52.6769C29.8073 53.5669 30.2673 54.0869 31.1173 54.2469C31.4873 54.3069 31.8673 54.2569 32.2373 54.2569ZM39.1573 54.2569C39.5273 54.2569 39.9073 54.2969 40.2773 54.2469C41.1173 54.1369 41.6573 53.4369 41.6073 52.6069C41.5273 51.5569 40.8673 51.1869 39.0073 51.1969C37.5273 51.1969 36.8973 51.6069 36.8273 52.6069C36.7573 53.7769 37.4473 54.2769 39.1573 54.2569ZM18.2173 26.3369C18.5873 26.3369 18.9773 26.3869 19.3373 26.3269C20.1773 26.1769 20.6973 25.6669 20.6573 24.7869C20.6073 23.8469 20.2873 23.1069 17.6573 23.2669C16.4773 23.3369 15.8473 23.8769 15.8873 24.8869C15.9273 25.9569 16.5673 26.3569 18.2173 26.3369ZM39.1473 26.3369C39.5173 26.3369 39.8973 26.3769 40.2673 26.3269C41.1073 26.2269 41.6573 25.5369 41.6073 24.6969C41.5473 23.7369 40.8773 23.2769 39.5273 23.2669C37.5373 23.2569 36.9073 23.5869 36.8273 24.6669C36.7473 25.8569 37.4373 26.3569 39.1473 26.3369ZM32.1773 26.3369C32.5473 26.3369 32.9373 26.3869 33.2973 26.3269C34.1373 26.1769 34.6573 25.6669 34.6173 24.7869C34.5673 23.8469 34.2473 23.1069 31.6173 23.2669C30.4373 23.3369 29.8073 23.8769 29.8473 24.8869C29.8873 25.9569 30.5273 26.3569 32.1773 26.3369ZM18.2073 54.2569C18.5773 54.2569 18.9573 54.2969 19.3273 54.2469C20.1673 54.1469 20.7173 53.4569 20.6673 52.6169C20.6073 51.6569 19.9373 51.1969 18.5873 51.1869C16.5973 51.1769 15.9673 51.5069 15.8873 52.5869C15.8073 53.7769 16.4973 54.2769 18.2073 54.2569ZM25.1773 26.3369C25.5473 26.3369 25.9273 26.3769 26.2973 26.3269C27.1373 26.2269 27.6873 25.5369 27.6373 24.6969C27.5773 23.7369 26.9073 23.2769 25.5673 23.2669C23.5773 23.2569 22.9473 23.5869 22.8673 24.6669C22.7873 25.8469 23.4773 26.3569 25.1773 26.3369Z" fill="#EEF4F9"/>
<path id="Vector_9" d="M64.3476 61.6669C64.3576 61.3269 64.3776 60.9969 64.3876 60.6569C64.4076 59.8369 64.7976 59.4069 65.6376 59.4169C66.7876 59.4269 67.9376 59.4369 69.0776 59.4469C68.6076 59.9069 68.4676 60.4469 68.4676 61.1069C68.4876 68.5469 68.4876 75.9769 68.4676 83.4169C68.4676 84.1269 68.5976 84.6969 69.2776 85.0269C68.0576 85.0469 66.8276 85.0769 65.6076 85.0769C64.7776 85.0769 64.3776 84.6169 64.3676 83.7969C64.3576 82.4369 64.3476 81.0769 64.3276 79.7169C64.3276 75.2169 64.3276 70.7069 64.3376 66.2069C64.3476 64.6869 64.3476 63.1769 64.3476 61.6669Z" fill="#27A6A6"/>
<path id="Vector_10" d="M31.1273 88.7969C33.0173 88.7669 34.8973 88.7469 36.7873 88.7169C38.1273 88.7269 39.4673 88.7269 40.8073 88.7369C46.8573 88.7369 52.9073 88.7269 58.9473 88.7269C61.7473 88.7369 64.5573 88.7569 67.3573 88.7569C69.1573 88.7669 69.3173 88.9169 69.3173 90.7669C69.3173 91.7269 69.3073 92.6869 69.3173 93.6369C69.3273 94.4969 68.8873 94.8869 68.0673 94.9169C67.9973 94.9169 67.9273 94.9169 67.8573 94.9169C55.6773 94.9169 43.5073 94.9169 31.3273 94.9169C31.2573 94.9169 31.1873 94.8969 31.1273 94.8869C30.6173 94.4169 30.4573 93.8469 30.4973 93.1569C30.5473 92.2769 30.5473 91.3969 30.4973 90.5269C30.4573 89.8469 30.6073 89.2669 31.1273 88.7969Z" fill="#2A3E7C"/>
<path id="Vector_11" d="M58.9376 88.7369C52.8876 88.7369 46.8376 88.7469 40.7876 88.7469C40.7876 85.7569 40.7876 82.7569 40.7876 79.7669C46.8376 79.7669 52.8776 79.7669 58.9176 79.7769C58.9376 82.7569 58.9376 85.7469 58.9376 88.7369Z" fill="#465FA1"/>
<path id="Vector_12" d="M40.7976 79.7569C40.7976 82.7469 40.7976 85.7469 40.7976 88.7369C39.4576 88.7269 38.1176 88.7269 36.7876 88.7169C36.7876 85.7369 36.7976 82.7469 36.7976 79.7669C38.1276 79.7669 39.4576 79.7669 40.7976 79.7569Z" fill="#304D8A"/>
<path id="Vector_13" d="M31.1276 88.7969C30.6176 89.2669 30.4576 89.8369 30.4976 90.5269C30.5476 91.4069 30.5476 92.2869 30.4976 93.1569C30.4576 93.8469 30.6176 94.4169 31.1276 94.8869C29.9376 94.8969 28.7476 94.9169 27.5576 94.9169C26.8076 94.9169 26.4276 94.4969 26.4076 93.7769C26.3876 92.4869 26.3876 91.1869 26.4076 89.8969C26.4176 89.1769 26.8076 88.7569 27.5576 88.7569C28.7376 88.7669 29.9276 88.7869 31.1276 88.7969Z" fill="#283163"/>
<path id="Vector_14" d="M50.6474 73.0069C50.6374 74.6469 49.4974 75.8369 47.9174 75.8269C46.2474 75.8269 45.0574 74.6369 45.0774 72.9969C45.0874 71.4669 46.3574 70.1369 47.8274 70.1169C49.3674 70.0869 50.6474 71.4069 50.6474 73.0069Z" fill="#465FA1"/>
<path id="Vector_15" d="M52.8276 27.9669C53.8076 27.7269 54.7976 27.8569 55.7776 27.8669C65.3476 28.0369 74.9176 27.8869 84.4876 27.9369C86.2976 27.9469 86.3976 28.0469 86.3976 29.8569C86.3976 34.2669 86.3976 38.6769 86.3976 43.0869C86.3976 44.7469 86.2576 44.8869 84.5576 44.8869C76.1776 44.8869 67.8076 44.8869 59.4276 44.8869C57.5476 44.8869 55.6676 44.9469 53.7876 44.9669C53.4576 44.9669 53.0976 45.0469 52.7876 44.8569C53.2976 44.8369 53.8076 44.8269 54.3176 44.8169C54.8676 44.8069 55.5276 44.9869 55.9276 44.7369C56.3876 44.4469 55.9176 43.7769 55.9276 43.2769C55.9676 38.7069 55.9476 34.1269 55.9576 29.5569C55.9576 29.2169 55.9176 28.8469 56.0476 28.5469C56.2876 27.9769 55.9676 27.9969 55.5876 27.9869C54.6676 27.9869 53.7476 27.9769 52.8276 27.9669Z" fill="#FAAE19"/>
<path id="Vector_16" d="M16.0974 28.9869C16.4974 28.7069 16.9574 28.8169 17.3874 28.8269C24.9074 28.8369 32.4274 28.8569 39.9474 28.8869C40.2874 28.8869 40.6274 28.9069 40.9674 28.9469C41.6374 29.0369 41.9974 29.4169 41.9974 30.1169C41.9974 35.8969 41.9974 41.6769 41.9974 47.4469C41.9974 48.1469 41.6374 48.5269 40.9674 48.6169C40.6274 48.6669 40.2874 48.6769 39.9474 48.6769C32.4274 48.6969 24.9074 48.7169 17.3874 48.7369C16.9574 48.7369 16.4974 48.8569 16.0874 48.5769C16.8074 48.5669 17.5174 48.5469 18.2374 48.5469C19.0074 48.5469 20.0074 48.7869 19.4174 47.3869C19.3474 47.2169 19.4074 46.9769 19.4074 46.7769C19.4074 41.4469 19.4074 36.1169 19.4074 30.7869C19.4074 30.3769 19.3674 29.9369 19.5174 29.5769C19.7374 29.0169 19.4574 29.0169 19.0674 29.0169C18.0874 29.0069 17.0974 28.9969 16.0974 28.9869Z" fill="#5FC1D7"/>
<path id="Vector_17" d="M16.0976 28.9869C17.0876 28.9969 18.0776 29.0069 19.0676 29.0069C19.4576 29.0069 19.7376 29.0069 19.5176 29.5669C19.3776 29.9269 19.4176 30.3669 19.4076 30.7769C19.3976 36.1069 19.4076 41.4369 19.4076 46.7669C19.4076 46.9669 19.3476 47.2069 19.4176 47.3769C20.0076 48.7769 19.0076 48.5369 18.2376 48.5369C17.5176 48.5369 16.8076 48.5569 16.0876 48.5669C15.4876 48.4069 15.3076 47.9669 15.3076 47.4069C15.3076 41.6469 15.3076 35.8969 15.3076 30.1369C15.3176 29.5769 15.4976 29.1369 16.0976 28.9869Z" fill="#27A6A6"/>
<path id="Vector_18" d="M52.8274 27.9669C53.7474 27.9769 54.6674 27.9969 55.5874 27.9969C55.9674 27.9969 56.2874 27.9869 56.0474 28.5569C55.9174 28.8569 55.9574 29.2269 55.9574 29.5669C55.9574 34.1369 55.9674 38.7169 55.9274 43.2869C55.9274 43.7969 56.3874 44.4569 55.9274 44.7469C55.5374 44.9969 54.8674 44.8069 54.3174 44.8269C53.8074 44.8369 53.2974 44.8569 52.7874 44.8669C52.0574 44.8169 51.8174 44.3669 51.8274 43.6969C51.8274 38.8269 51.8274 33.9669 51.8274 29.0969C51.8374 28.4269 52.0874 27.9869 52.8274 27.9669Z" fill="#F89522"/>
<path id="Vector_19" d="M57.8576 50.7869C56.4876 50.7869 55.1276 50.7969 53.7576 50.7869C52.7176 50.7769 52.0776 50.1969 52.0576 49.2869C52.0376 48.3869 52.6676 47.7369 53.7076 47.7269C56.5076 47.6969 59.3076 47.6969 62.1076 47.7269C63.1776 47.7369 63.9376 48.4669 63.9076 49.3169C63.8776 50.2369 63.2076 50.7769 62.0476 50.7869C60.6576 50.7969 59.2576 50.7869 57.8576 50.7869Z" fill="#C4DEF4"/>
<path id="Vector_20" d="M57.9375 52.4269C59.3375 52.4269 60.7375 52.4169 62.1375 52.4269C63.1675 52.4369 63.8575 53.0269 63.9175 53.8969C63.9675 54.6869 63.2175 55.4669 62.2275 55.4769C59.3575 55.5169 56.4975 55.5169 53.6275 55.4769C52.6675 55.4669 52.0575 54.7869 52.0675 53.9369C52.0775 53.0269 52.7175 52.4369 53.7475 52.4269C55.1375 52.4169 56.5375 52.4269 57.9375 52.4269Z" fill="#C4DEF4"/>
<path id="Vector_21" d="M81.2774 50.7869C79.9474 50.7869 78.6174 50.7969 77.2874 50.7869C76.1974 50.7669 75.7174 50.3269 75.6674 49.3669C75.6274 48.4569 76.2274 47.7469 77.2374 47.7369C79.9674 47.6969 82.6874 47.6969 85.4174 47.7369C86.3774 47.7469 86.9774 48.4369 86.9574 49.2969C86.9374 50.2069 86.2974 50.7769 85.2674 50.7969C83.9374 50.7969 82.6074 50.7869 81.2774 50.7869Z" fill="#C4DEF4"/>
<path id="Vector_22" d="M81.3277 52.4269C82.6577 52.4269 83.9977 52.4169 85.3277 52.4269C86.2977 52.4369 86.9277 53.0269 86.9577 53.8969C86.9877 54.7569 86.3877 55.4669 85.4377 55.4769C82.7077 55.5169 79.9677 55.5169 77.2377 55.4769C76.2377 55.4669 75.6277 54.7469 75.6777 53.8269C75.7277 52.9269 76.2877 52.4369 77.3377 52.4169C78.6677 52.4169 79.9977 52.4269 81.3277 52.4269Z" fill="#C4DEF4"/>
<path id="Vector_23" d="M69.7373 50.7869C68.6773 50.7869 67.6173 50.8069 66.5673 50.7769C65.6673 50.7569 65.0473 50.1769 64.9973 49.3569C64.9473 48.5369 65.4873 47.7769 66.3673 47.7469C68.6173 47.6869 70.8673 47.6869 73.1173 47.7569C73.9673 47.7869 74.6273 48.6169 74.5873 49.3269C74.5373 50.1869 73.9273 50.7469 72.9173 50.7669C71.8573 50.8069 70.7973 50.7869 69.7373 50.7869Z" fill="#C4DEF4"/>
<path id="Vector_24" d="M69.7476 52.4269C70.8076 52.4269 71.8576 52.4069 72.9176 52.4369C73.8576 52.4569 74.5376 53.0869 74.5876 53.9069C74.6276 54.5969 73.9376 55.4369 73.0876 55.4569C70.8376 55.5169 68.5876 55.5269 66.3376 55.4569C65.4776 55.4269 64.9376 54.6569 64.9876 53.8369C65.0476 53.0369 65.6676 52.4569 66.5676 52.4369C67.6376 52.4169 68.6976 52.4269 69.7476 52.4269Z" fill="#C4DEF4"/>
<path id="Vector_25" d="M11.3974 21.4469C12.1474 21.4369 12.8974 21.4269 13.6374 21.4269C14.4674 21.4169 14.9074 21.8269 14.9074 22.6669C14.9074 23.9569 14.9174 25.2469 14.9074 26.5469C14.9074 27.3869 14.4674 27.7969 13.6374 27.7869C12.8874 27.7769 12.1374 27.7669 11.3974 27.7569C10.8974 27.2669 10.7574 26.6769 10.7874 25.9869C10.8274 25.0669 10.8274 24.1369 10.7874 23.2169C10.7474 22.5269 10.8974 21.9369 11.3974 21.4469Z" fill="#59BBEA"/>
<path id="Vector_26" d="M45.4774 49.7669C46.2274 49.7569 46.9674 49.7569 47.7174 49.7469C48.5474 49.7369 48.9874 50.1369 48.9874 50.9869C48.9874 52.2769 48.9974 53.5669 48.9874 54.8669C48.9774 55.7069 48.5274 56.1069 47.7074 56.1169C46.9574 56.1169 46.2074 56.1069 45.4674 56.0969C44.9974 55.5469 44.8374 54.9269 44.8674 54.2069C44.9074 53.3269 44.9174 52.4369 44.8674 51.5469C44.8274 50.8469 44.9974 50.2669 45.4774 49.7669Z" fill="#59BBEA"/>
<path id="Vector_27" d="M11.3974 49.7669C12.1474 49.7569 12.8874 49.7569 13.6374 49.7469C14.4674 49.7369 14.9074 50.1369 14.9074 50.9869C14.9074 52.2769 14.9174 53.5669 14.9074 54.8669C14.8974 55.7069 14.4474 56.1069 13.6274 56.1169C12.8774 56.1169 12.1274 56.1069 11.3874 56.0969C10.9174 55.5469 10.7574 54.9269 10.7874 54.2069C10.8274 53.3269 10.8374 52.4369 10.7874 51.5469C10.7474 50.8469 10.9174 50.2669 11.3974 49.7669Z" fill="#59BBEA"/>
<path id="Vector_28" d="M45.4776 21.0369C46.2276 21.0269 46.9776 21.0169 47.7176 21.0169C48.5476 21.0069 48.9876 21.4169 48.9876 22.2569C48.9876 23.5469 48.9876 24.8369 48.9876 26.1369C48.9876 26.9769 48.5476 27.3869 47.7176 27.3769C46.9676 27.3669 46.2176 27.3569 45.4776 27.3469C45.0476 26.8269 44.8376 26.2569 44.8676 25.5669C44.9076 24.6869 44.9076 23.7969 44.8676 22.9169C44.8376 22.2069 45.0076 21.5769 45.4776 21.0369Z" fill="#59BBEA"/>
<path id="Vector_29" d="M74.6977 23.2469C74.6977 25.3269 74.6877 25.3269 72.4477 25.3269C70.5077 25.3269 70.3877 25.2069 70.3877 23.1169C70.3877 21.1269 70.5177 21.0069 72.7777 21.0069C74.6077 21.0169 74.6977 21.1269 74.6977 23.2469Z" fill="#EE8626"/>
<path id="Vector_30" d="M80.4477 23.2269C80.4477 25.3169 80.4277 25.3369 78.2177 25.3369C76.2577 25.3369 76.1377 25.2169 76.1377 23.1469C76.1377 21.1369 76.2677 21.0169 78.4977 21.0169C80.3577 21.0169 80.4477 21.1169 80.4477 23.2269Z" fill="#EE8626"/>
<path id="Vector_31" d="M83.9877 25.3369C82.0077 25.3369 81.8877 25.2069 81.8877 23.1769C81.8877 21.1369 82.0077 21.0269 84.2277 21.0269C86.1477 21.0269 86.1977 21.0969 86.1977 23.4169C86.1977 25.2769 86.1277 25.3369 83.9877 25.3369Z" fill="#EE8626"/>
<path id="Vector_32" d="M45.4775 21.0369C45.0075 21.5769 44.8375 22.1969 44.8675 22.9169C44.9075 23.7969 44.9075 24.6869 44.8675 25.5669C44.8375 26.2569 45.0375 26.8369 45.4775 27.3469C42.6275 27.4769 42.6275 27.4769 42.6275 24.6569C42.6275 23.9069 42.6175 23.1569 42.6275 22.4069C42.6475 21.3469 42.9775 21.0269 44.0475 21.0169C44.5275 21.0069 44.9975 21.0369 45.4775 21.0369Z" fill="#249AD6"/>
<path id="Vector_33" d="M11.3976 21.4469C10.8976 21.9369 10.7476 22.5269 10.7876 23.2169C10.8276 24.1369 10.8276 25.0669 10.7876 25.9869C10.7576 26.6769 10.8976 27.2669 11.3976 27.7569C8.53765 27.8869 8.53765 27.8869 8.53765 25.0669C8.53765 24.3169 8.52765 23.5669 8.53765 22.8169C8.55765 21.7569 8.88765 21.4369 9.95765 21.4269C10.4476 21.4269 10.9176 21.4469 11.3976 21.4469Z" fill="#249AD6"/>
<path id="Vector_34" d="M11.3976 49.7669C10.9276 50.2669 10.7476 50.8469 10.7876 51.5369C10.8376 52.4169 10.8276 53.3069 10.7876 54.1969C10.7576 54.9169 10.9176 55.5469 11.3876 56.0869C8.54765 56.2269 8.53765 56.2169 8.53765 53.3769C8.53765 52.6569 8.52765 51.9469 8.53765 51.2269C8.54765 50.0269 8.83765 49.7469 10.0676 49.7269C10.5076 49.7269 10.9476 49.7569 11.3976 49.7669Z" fill="#249AD6"/>
<path id="Vector_35" d="M45.4777 49.7669C45.0077 50.2669 44.8277 50.8469 44.8677 51.5369C44.9177 52.4169 44.9077 53.3069 44.8677 54.1969C44.8377 54.9169 44.9977 55.5469 45.4677 56.0869C42.6277 56.2269 42.6177 56.2169 42.6177 53.3769C42.6177 52.6569 42.6077 51.9469 42.6177 51.2269C42.6277 50.0269 42.9177 49.7469 44.1477 49.7269C44.5877 49.7269 45.0377 49.7569 45.4777 49.7669Z" fill="#249AD6"/>
<path id="Vector_36" d="M44.6377 45.3969C44.6377 43.8069 45.0977 43.0469 46.0777 43.0169C47.1277 42.9869 47.7077 43.8269 47.7177 45.3969C47.7177 45.8069 47.7277 46.2269 47.6277 46.6169C47.4177 47.4769 46.8777 48.0269 45.9377 47.8869C45.0777 47.7669 44.6577 47.1869 44.6377 46.3169C44.6377 46.0069 44.6377 45.6969 44.6377 45.3969Z" fill="#77CAF2"/>
<path id="Vector_37" d="M9.7373 45.3969C9.7373 43.8069 10.1973 43.0469 11.1773 43.0169C12.2573 42.9869 12.8173 43.8169 12.8173 45.4969C12.8173 45.8669 12.8173 46.2569 12.7373 46.6069C12.5273 47.4669 11.9873 48.0169 11.0473 47.8869C10.1873 47.7669 9.7673 47.1869 9.7473 46.3169C9.7373 46.0069 9.7373 45.7069 9.7373 45.3969Z" fill="#77CAF2"/>
<path id="Vector_38" d="M44.6377 38.4269C44.6377 38.3969 44.6377 38.3569 44.6377 38.3269C44.6377 36.8269 45.1077 36.0769 46.0777 36.0369C47.1277 35.9969 47.7177 36.8369 47.7277 38.4069C47.7277 38.8769 47.7677 39.3569 47.5977 39.8169C47.3177 40.5869 46.7877 41.0169 45.9677 40.9069C45.1577 40.7969 44.7177 40.2669 44.6577 39.4469C44.6377 39.1069 44.6577 38.7669 44.6577 38.4269C44.6477 38.4269 44.6377 38.4269 44.6377 38.4269Z" fill="#77CAF2"/>
<path id="Vector_39" d="M9.7373 38.4269C9.7373 38.3569 9.7373 38.2869 9.7373 38.2269C9.7473 36.8169 10.2273 36.0769 11.1673 36.0369C12.1973 35.9969 12.8073 36.8169 12.8173 38.2969C12.8173 38.8069 12.8673 39.3169 12.6873 39.8169C12.4073 40.5869 11.8873 41.0269 11.0573 40.9169C10.2473 40.8069 9.7973 40.2869 9.7473 39.4669C9.7273 39.1269 9.7473 38.7869 9.7473 38.4469C9.7373 38.4269 9.7373 38.4269 9.7373 38.4269Z" fill="#77CAF2"/>
<path id="Vector_40" d="M44.6377 31.4869C44.6377 31.3169 44.6377 31.1469 44.6377 30.9769C44.6577 29.8169 45.1677 29.1169 46.0277 29.0469C46.9177 28.9769 47.6377 29.7169 47.7077 30.8569C47.7477 31.4969 47.8177 32.1469 47.6077 32.7869C47.3377 33.6069 46.7777 34.0569 45.9077 33.9169C45.1077 33.7869 44.6777 33.2369 44.6477 32.4069C44.6377 32.1069 44.6477 31.7969 44.6377 31.4869Z" fill="#77CAF2"/>
<path id="Vector_41" d="M9.73754 31.5269C9.73754 31.2169 9.73754 30.9169 9.73754 30.6069C9.74754 29.7169 10.2575 29.1669 11.0875 29.0869C11.9275 29.0069 12.5075 29.4769 12.6975 30.3369C12.8775 31.1069 12.8975 31.8969 12.7175 32.6669C12.5175 33.5269 11.9575 34.0669 11.0175 33.9269C10.1575 33.7969 9.73754 33.2169 9.72754 32.3469C9.73754 32.0669 9.73754 31.7969 9.73754 31.5269Z" fill="#77CAF2"/>
<path id="Vector_42" d="M25.3073 51.2069C25.6173 51.2069 25.9173 51.1769 26.2273 51.2069C27.0973 51.2969 27.6773 51.9369 27.6473 52.7669C27.6073 53.6469 27.1073 54.1469 26.2573 54.2469C25.6573 54.3169 25.0373 54.2869 24.4273 54.2669C23.4473 54.2169 22.8773 53.6469 22.8673 52.7469C22.8573 51.8469 23.4273 51.2669 24.3973 51.1969C24.6973 51.1769 25.0073 51.1969 25.3073 51.2069Z" fill="#77CAF2"/>
<path id="Vector_43" d="M32.2375 54.2569C31.8675 54.2569 31.4775 54.3169 31.1175 54.2469C30.2775 54.0869 29.8175 53.5669 29.8375 52.6769C29.8675 51.8269 30.3475 51.3469 31.1375 51.2369C31.7375 51.1569 32.3575 51.1869 32.9675 51.2069C33.9975 51.2369 34.6175 51.8469 34.6175 52.7569C34.6075 53.6569 33.9775 54.2369 32.9475 54.2769C32.7075 54.2869 32.4675 54.2769 32.2375 54.2769C32.2375 54.2669 32.2375 54.2569 32.2375 54.2569Z" fill="#77CAF2"/>
<path id="Vector_44" d="M39.1575 54.2569C37.4375 54.2769 36.7475 53.7769 36.8275 52.6069C36.8975 51.6069 37.5275 51.1969 39.0075 51.1969C40.8575 51.1969 41.5275 51.5569 41.6075 52.6069C41.6675 53.4469 41.1175 54.1469 40.2775 54.2469C39.9075 54.2969 39.5375 54.2569 39.1575 54.2569Z" fill="#77CAF2"/>
<path id="Vector_45" d="M18.2175 26.3369C16.5675 26.3569 15.9275 25.9569 15.8875 24.8869C15.8475 23.8669 16.4775 23.3369 17.6575 23.2669C20.2875 23.1069 20.6075 23.8469 20.6575 24.7869C20.7075 25.6669 20.1775 26.1769 19.3375 26.3269C18.9775 26.3869 18.5975 26.3369 18.2175 26.3369Z" fill="#77CAF2"/>
<path id="Vector_46" d="M39.1473 26.3369C37.4373 26.3469 36.7473 25.8469 36.8373 24.6669C36.9173 23.5869 37.5473 23.2569 39.5373 23.2669C40.8873 23.2769 41.5473 23.7269 41.6173 24.6969C41.6673 25.5369 41.1173 26.2269 40.2773 26.3269C39.8973 26.3769 39.5173 26.3369 39.1473 26.3369Z" fill="#77CAF2"/>
<path id="Vector_47" d="M32.1775 26.3369C30.5275 26.3569 29.8875 25.9569 29.8475 24.8869C29.8075 23.8669 30.4375 23.3369 31.6175 23.2669C34.2475 23.1069 34.5675 23.8469 34.6175 24.7869C34.6675 25.6669 34.1375 26.1769 33.2975 26.3269C32.9375 26.3869 32.5575 26.3369 32.1775 26.3369Z" fill="#77CAF2"/>
<path id="Vector_48" d="M18.2074 54.2569C16.4974 54.2669 15.8074 53.7669 15.8974 52.5869C15.9774 51.5069 16.6074 51.1769 18.5974 51.1869C19.9474 51.1969 20.6074 51.6469 20.6774 52.6169C20.7274 53.4569 20.1774 54.1469 19.3374 54.2469C18.9574 54.2969 18.5774 54.2569 18.2074 54.2569Z" fill="#77CAF2"/>
<path id="Vector_49" d="M25.1776 26.3369C23.4676 26.3469 22.7776 25.8469 22.8676 24.6669C22.9476 23.5869 23.5776 23.2569 25.5676 23.2669C26.9176 23.2769 27.5776 23.7369 27.6376 24.6969C27.6876 25.5369 27.1376 26.2269 26.2976 26.3269C25.9376 26.3769 25.5576 26.3369 25.1776 26.3369Z" fill="#77CAF2"/>
</g>
</g>
<defs>
<clipPath id="clip0_249_447">
<rect width="113.28" height="105.6" fill="white" transform="translate(0.9375 0.306911)"/>
</clipPath>
</defs>
</svg>
